<svg width="20" height="20" viewBox="0 0 20 20" fill="none" xmlns="http://www.w3.org/2000/svg">
<path d="M3.19448 12.7071L3.92552 12.5395L3.19448 12.7071ZM3.19448 7.79436L3.92552 7.96191L3.19448 7.79436ZM16.8057 7.79436L16.0746 7.96192L16.8057 7.79436ZM16.8057 12.7071L16.0746 12.5395L16.8057 12.7071ZM12.4002 17.2158L12.5753 17.945L12.4002 17.2158ZM7.59996 17.2158L7.77504 16.4865L7.59996 17.2158ZM7.59996 3.28566L7.77503 4.01494L7.59996 3.28566ZM12.4002 3.28566L12.5753 2.55638L12.4002 3.28566ZM7.47515 2.5C7.47515 2.08579 7.13936 1.75 6.72515 1.75C6.31093 1.75 5.97515 2.08579 5.97515 2.5H7.47515ZM5.97515 4.59479C5.97515 5.009 6.31093 5.34479 6.72515 5.34479C7.13936 5.34479 7.47515 5.009 7.47515 4.59479H5.97515ZM14.025 2.5C14.025 2.08579 13.6892 1.75 13.275 1.75C12.8608 1.75 12.525 2.08579 12.525 2.5H14.025ZM12.525 4.59479C12.525 5.009 12.8608 5.34479 13.275 5.34479C13.6892 5.34479 14.025 5.009 14.025 4.59479H12.525ZM3.92552 12.5395C3.58049 11.0341 3.58049 9.46728 3.92552 7.96191L2.46343 7.6268C2.06785 9.35272 2.06785 11.1487 2.46343 12.8746L3.92552 12.5395ZM16.0746 7.96192C16.4197 9.46728 16.4197 11.0341 16.0746 12.5395L17.5367 12.8746C17.9323 11.1487 17.9323 9.35272 17.5367 7.62681L16.0746 7.96192ZM12.2251 16.4865C10.7616 16.8378 9.23861 16.8378 7.77504 16.4865L7.42489 17.945C9.11862 18.3517 10.8815 18.3517 12.5753 17.945L12.2251 16.4865ZM7.77503 4.01494C9.23861 3.66359 10.7616 3.66359 12.2251 4.01494L12.5753 2.55638C10.8815 2.14978 9.11862 2.14978 7.42489 2.55638L7.77503 4.01494ZM7.77504 16.4865C5.87337 16.03 4.37634 14.5065 3.92552 12.5395L2.46343 12.8746C3.03811 15.382 4.95469 17.352 7.42489 17.945L7.77504 16.4865ZM12.5753 17.945C15.0455 17.352 16.9621 15.382 17.5367 12.8746L16.0746 12.5395C15.6238 14.5065 14.1268 16.03 12.2251 16.4865L12.5753 17.945ZM12.2251 4.01494C14.1268 4.47146 15.6238 5.99497 16.0746 7.96192L17.5367 7.62681C16.9621 5.11945 15.0455 3.14939 12.5753 2.55638L12.2251 4.01494ZM7.42489 2.55638C4.95468 3.14939 3.03811 5.11945 2.46343 7.6268L3.92552 7.96191C4.37634 5.99497 5.87336 4.47146 7.77503 4.01494L7.42489 2.55638ZM3.45022 7.64905H16.5499V6.14905H3.45022V7.64905ZM5.97515 2.5V4.59479H7.47515V2.5H5.97515ZM12.525 2.5V4.59479H14.025V2.5H12.525Z" fill="#A4A7AD"/>
<ellipse cx="6.66658" cy="9.99999" rx="0.833333" ry="0.833333" fill="#A4A7AD"/>
<ellipse cx="6.66658" cy="13.3333" rx="0.833333" ry="0.833333" fill="#A4A7AD"/>
<circle cx="10.0001" cy="9.99999" r="0.833333" fill="#A4A7AD"/>
<ellipse cx="10.0001" cy="13.3333" rx="0.833333" ry="0.833333" fill="#A4A7AD"/>
<ellipse cx="13.3333" cy="9.99999" rx="0.833333" ry="0.833333" fill="#A4A7AD"/>
</svg>
