<svg width="60" height="60" viewBox="0 0 60 60" fill="none" xmlns="http://www.w3.org/2000/svg">
<path d="M54.0606 14.375C46.6897 2.01429 31.0361 -2.51233 17.9481 3.90795C6.5401 9.49813 0.510505 22.7537 3.97459 34.6215C7.03497 45.0885 16.2291 51.7812 26.947 52.741C27.4158 52.7799 27.7674 52.9096 28.106 53.2209C29.4994 54.505 30.8017 55.8928 32.3515 57.0212C35.5681 59.3429 38.941 59.6412 42.4963 57.8124C44.8534 56.6061 46.7808 54.8941 48.4347 52.8966C51.0784 49.693 52.9146 46.0483 54.4904 42.274C56.4308 37.6047 57.6679 32.7798 57.707 28.5125C57.72 22.9483 56.5089 18.4865 54.0606 14.375Z" fill="#FFE0C8"/>
<path d="M51.8987 15.9962C44.9836 4.19323 30.3198 -0.125866 18.0392 6.00907C7.34745 11.3398 1.68249 23.9988 4.93821 35.3348C7.80325 45.3349 16.4244 51.7163 26.4781 52.6372C26.9078 52.6761 27.2464 52.8058 27.572 53.1041C28.8873 54.3233 30.0984 55.6592 31.557 56.7358C34.5783 58.9537 37.7429 59.239 41.0767 57.501C43.2906 56.3467 45.0878 54.7254 46.6375 52.8058C49.1118 49.7448 50.8309 46.2688 52.3155 42.663C54.1387 38.2013 55.2847 33.5968 55.3368 29.5242C55.3237 24.1804 54.1908 19.9262 51.8987 15.9962Z" fill="url(#paint0_linear_794_3367)"/>
<path d="M36.8183 58.8109C34.969 58.8109 33.1719 58.1754 31.4398 56.8913C30.398 56.1261 29.4603 55.2182 28.5618 54.3362C28.1971 53.973 27.8195 53.6098 27.4418 53.2597C27.1683 53.0002 26.8818 52.8835 26.4651 52.8446C21.3992 52.3777 16.7109 50.5618 12.8952 47.5527C8.96232 44.4658 6.14938 40.2634 4.75593 35.3996C3.16714 29.8743 3.64899 23.8171 6.08427 18.3567C8.51955 12.8962 12.739 8.44738 17.9481 5.84035C23.9386 2.85719 30.7105 2.23462 37.0397 4.08937C43.3688 5.95709 48.7082 10.1465 52.0681 15.9053C54.4252 19.9261 55.5191 24.2581 55.5191 29.5111C55.4801 33.4151 54.4252 37.9807 52.4848 42.7278C50.6876 47.1247 48.9296 50.2765 46.7808 52.9224C45.0748 55.0366 43.2386 56.58 41.1549 57.6695C39.6963 58.4218 38.2378 58.8109 36.8183 58.8109ZM29.7338 3.41491C25.7618 3.41491 21.7899 4.34877 18.1304 6.17758C12.9994 8.74569 8.84512 13.1167 6.44891 18.4993C4.03967 23.882 3.57085 29.8483 5.1336 35.2829C6.501 40.0689 9.27487 44.2064 13.1427 47.2414C16.8933 50.1987 21.5164 51.9886 26.5041 52.4425C27.012 52.4944 27.3767 52.6371 27.7153 52.9613C28.0929 53.3245 28.4836 53.6877 28.8483 54.0508C29.7338 54.9198 30.6584 55.8278 31.6742 56.58C34.6695 58.785 37.7169 59.0314 40.9856 57.3193C43.0172 56.2558 44.8143 54.7383 46.4943 52.663C48.617 50.043 50.349 46.9302 52.1462 42.5722C54.0736 37.8769 55.1024 33.3503 55.1545 29.4981C55.1545 24.323 54.0736 20.0558 51.7555 16.0998C48.4347 10.4318 43.1865 6.30728 36.9485 4.46551C34.5653 3.76511 32.1431 3.41491 29.7338 3.41491Z" fill="url(#paint1_linear_794_3367)"/>
<g filter="url(#filter0_d_794_3367)">
<path d="M42.12 35.4385C40.7787 36.7485 39.255 37.9029 37.6011 38.7848C35.9732 39.6538 34.2021 40.3024 32.3789 40.6396C30.4385 41.0028 28.4851 41.0287 26.5186 40.7304C24.5391 40.4321 22.6117 39.7446 20.8536 38.8108C18.8351 37.7342 17.0119 36.2816 15.4361 34.6344C15.2278 34.4139 15.0194 34.1934 14.824 33.9729C14.4854 33.5967 14.4203 32.9612 14.824 32.598C15.2017 32.2608 15.8398 32.1959 16.2045 32.598C17.051 33.5449 17.9756 34.4268 18.9653 35.231C19.0825 35.3218 19.1997 35.4126 19.3039 35.5034C19.0695 35.3088 19.2518 35.4645 19.3039 35.5034C19.369 35.5552 19.4341 35.6071 19.5123 35.659C19.7467 35.8406 19.9941 36.0092 20.2416 36.1778C20.7104 36.4891 21.1922 36.7874 21.6871 37.0598C22.2341 37.3581 22.781 37.6305 23.354 37.864C23.2759 37.825 23.1978 37.7991 23.1196 37.7602C24.461 38.3179 25.8805 38.72 27.326 38.9145C27.2349 38.9016 27.1567 38.8886 27.0656 38.8756C28.472 39.0572 29.8915 39.0572 31.298 38.8756C31.2068 38.8886 31.1287 38.9016 31.0375 38.9145C32.5221 38.72 33.9807 38.3049 35.3742 37.7342C35.296 37.7732 35.2179 37.7991 35.1397 37.838C35.9732 37.4878 36.7806 37.0728 37.549 36.5929C37.9397 36.3594 38.3173 36.1 38.682 35.8406C38.7731 35.7757 38.8643 35.7109 38.9554 35.646C38.9945 35.6201 39.0336 35.5942 39.0727 35.5552C39.0987 35.5423 39.1117 35.5163 39.1378 35.5034C39.2289 35.4385 38.9424 35.659 39.0596 35.5682C39.242 35.4255 39.4243 35.2699 39.6066 35.1272C39.9973 34.79 40.388 34.4528 40.7526 34.0896C41.1172 33.7264 41.7814 33.7005 42.133 34.0896C42.4716 34.4528 42.4977 35.0624 42.12 35.4385Z" fill="url(#paint2_linear_794_3367)"/>
</g>
<g filter="url(#filter1_d_794_3367)">
<path d="M38.6951 37.4101C39.8151 38.759 42.1852 38.6422 44.0084 37.1507C45.8186 35.6591 46.3786 33.3633 45.2586 32.0144C44.1386 30.6655 41.7685 30.7823 39.9453 32.2738C38.1221 33.7654 37.5751 36.0612 38.6951 37.4101Z" fill="url(#paint3_linear_794_3367)"/>
</g>
<g filter="url(#filter2_d_794_3367)">
<path d="M17.7314 23.4898C18.9182 23.4898 19.8802 22.5317 19.8802 21.3497C19.8802 20.1678 18.9182 19.2097 17.7314 19.2097C16.5447 19.2097 15.5826 20.1678 15.5826 21.3497C15.5826 22.5317 16.5447 23.4898 17.7314 23.4898Z" fill="url(#paint4_linear_794_3367)"/>
</g>
<g filter="url(#filter3_d_794_3367)">
<path d="M30.3141 23.4898C31.5008 23.4898 32.4628 22.5317 32.4628 21.3497C32.4628 20.1678 31.5008 19.2097 30.3141 19.2097C29.1273 19.2097 28.1653 20.1678 28.1653 21.3497C28.1653 22.5317 29.1273 23.4898 30.3141 23.4898Z" fill="url(#paint5_linear_794_3367)"/>
</g>
<g filter="url(#filter4_d_794_3367)">
<path d="M42.8967 23.4898C44.0834 23.4898 45.0455 22.5317 45.0455 21.3497C45.0455 20.1678 44.0834 19.2097 42.8967 19.2097C41.71 19.2097 40.7479 20.1678 40.7479 21.3497C40.7479 22.5317 41.71 23.4898 42.8967 23.4898Z" fill="url(#paint6_linear_794_3367)"/>
</g>
<defs>
<filter id="filter0_d_794_3367" x="4.54517" y="26.3203" width="47.85" height="28.6147" filterUnits="userSpaceOnUse" color-interpolation-filters="sRGB">
<feFlood flood-opacity="0" result="BackgroundImageFix"/>
<feColorMatrix in="SourceAlpha" type="matrix" values="0 0 0 0 0 0 0 0 0 0 0 0 0 0 0 0 0 0 127 0" result="hardAlpha"/>
<feOffset dy="4"/>
<feGaussianBlur stdDeviation="5"/>
<feComposite in2="hardAlpha" operator="out"/>
<feColorMatrix type="matrix" values="0 0 0 0 0.841667 0 0 0 0 0.275183 0 0 0 0 0.112222 0 0 0 0.45 0"/>
<feBlend mode="normal" in2="BackgroundImageFix" result="effect1_dropShadow_794_3367"/>
<feBlend mode="normal" in="SourceGraphic" in2="effect1_dropShadow_794_3367" result="shape"/>
</filter>
<filter id="filter1_d_794_3367" x="28.115" y="25.0743" width="27.7206" height="27.2759" filterUnits="userSpaceOnUse" color-interpolation-filters="sRGB">
<feFlood flood-opacity="0" result="BackgroundImageFix"/>
<feColorMatrix in="SourceAlpha" type="matrix" values="0 0 0 0 0 0 0 0 0 0 0 0 0 0 0 0 0 0 127 0" result="hardAlpha"/>
<feOffset dy="4"/>
<feGaussianBlur stdDeviation="5"/>
<feComposite in2="hardAlpha" operator="out"/>
<feColorMatrix type="matrix" values="0 0 0 0 0.841667 0 0 0 0 0.275183 0 0 0 0 0.112222 0 0 0 0.45 0"/>
<feBlend mode="normal" in2="BackgroundImageFix" result="effect1_dropShadow_794_3367"/>
<feBlend mode="normal" in="SourceGraphic" in2="effect1_dropShadow_794_3367" result="shape"/>
</filter>
<filter id="filter2_d_794_3367" x="5.58264" y="13.2097" width="24.2975" height="24.2802" filterUnits="userSpaceOnUse" color-interpolation-filters="sRGB">
<feFlood flood-opacity="0" result="BackgroundImageFix"/>
<feColorMatrix in="SourceAlpha" type="matrix" values="0 0 0 0 0 0 0 0 0 0 0 0 0 0 0 0 0 0 127 0" result="hardAlpha"/>
<feOffset dy="4"/>
<feGaussianBlur stdDeviation="5"/>
<feComposite in2="hardAlpha" operator="out"/>
<feColorMatrix type="matrix" values="0 0 0 0 0.841667 0 0 0 0 0.275183 0 0 0 0 0.112222 0 0 0 0.45 0"/>
<feBlend mode="normal" in2="BackgroundImageFix" result="effect1_dropShadow_794_3367"/>
<feBlend mode="normal" in="SourceGraphic" in2="effect1_dropShadow_794_3367" result="shape"/>
</filter>
<filter id="filter3_d_794_3367" x="18.1653" y="13.2097" width="24.2975" height="24.2802" filterUnits="userSpaceOnUse" color-interpolation-filters="sRGB">
<feFlood flood-opacity="0" result="BackgroundImageFix"/>
<feColorMatrix in="SourceAlpha" type="matrix" values="0 0 0 0 0 0 0 0 0 0 0 0 0 0 0 0 0 0 127 0" result="hardAlpha"/>
<feOffset dy="4"/>
<feGaussianBlur stdDeviation="5"/>
<feComposite in2="hardAlpha" operator="out"/>
<feColorMatrix type="matrix" values="0 0 0 0 0.841667 0 0 0 0 0.275183 0 0 0 0 0.112222 0 0 0 0.45 0"/>
<feBlend mode="normal" in2="BackgroundImageFix" result="effect1_dropShadow_794_3367"/>
<feBlend mode="normal" in="SourceGraphic" in2="effect1_dropShadow_794_3367" result="shape"/>
</filter>
<filter id="filter4_d_794_3367" x="30.7479" y="13.2097" width="24.2975" height="24.2802" filterUnits="userSpaceOnUse" color-interpolation-filters="sRGB">
<feFlood flood-opacity="0" result="BackgroundImageFix"/>
<feColorMatrix in="SourceAlpha" type="matrix" values="0 0 0 0 0 0 0 0 0 0 0 0 0 0 0 0 0 0 127 0" result="hardAlpha"/>
<feOffset dy="4"/>
<feGaussianBlur stdDeviation="5"/>
<feComposite in2="hardAlpha" operator="out"/>
<feColorMatrix type="matrix" values="0 0 0 0 0.841667 0 0 0 0 0.275183 0 0 0 0 0.112222 0 0 0 0.45 0"/>
<feBlend mode="normal" in2="BackgroundImageFix" result="effect1_dropShadow_794_3367"/>
<feBlend mode="normal" in="SourceGraphic" in2="effect1_dropShadow_794_3367" result="shape"/>
</filter>
<linearGradient id="paint0_linear_794_3367" x1="48.9857" y1="6.94111" x2="14.8476" y2="49.6534" gradientUnits="userSpaceOnUse">
<stop stop-color="#F7943B"/>
<stop offset="0.0001" stop-color="#F7943B"/>
<stop offset="1" stop-color="#F75D3B"/>
</linearGradient>
<linearGradient id="paint1_linear_794_3367" x1="45.2053" y1="55.3467" x2="17.0143" y2="6.32054" gradientUnits="userSpaceOnUse">
<stop stop-color="#F7943B"/>
<stop offset="0.0001" stop-color="#F7943B"/>
<stop offset="1" stop-color="#F75D3B"/>
</linearGradient>
<linearGradient id="paint2_linear_794_3367" x1="41.5612" y1="36.6302" x2="15.3682" y2="36.6302" gradientUnits="userSpaceOnUse">
<stop stop-color="#F3E9DA"/>
<stop offset="1" stop-color="#FFD7A6"/>
</linearGradient>
<linearGradient id="paint3_linear_794_3367" x1="45.8276" y1="34.7107" x2="38.1145" y2="34.7107" gradientUnits="userSpaceOnUse">
<stop stop-color="#F3E9DA"/>
<stop offset="1" stop-color="#FFD7A6"/>
</linearGradient>
<linearGradient id="paint4_linear_794_3367" x1="15.5744" y1="21.3459" x2="19.88" y2="21.3459" gradientUnits="userSpaceOnUse">
<stop stop-color="#F3E9DA"/>
<stop offset="1" stop-color="#FFD7A6"/>
</linearGradient>
<linearGradient id="paint5_linear_794_3367" x1="28.1664" y1="21.3459" x2="32.4721" y2="21.3459" gradientUnits="userSpaceOnUse">
<stop stop-color="#F3E9DA"/>
<stop offset="1" stop-color="#FFD7A6"/>
</linearGradient>
<linearGradient id="paint6_linear_794_3367" x1="40.7454" y1="21.3459" x2="45.0511" y2="21.3459" gradientUnits="userSpaceOnUse">
<stop stop-color="#F3E9DA"/>
<stop offset="1" stop-color="#FFD7A6"/>
</linearGradient>
</defs>
</svg>
