<svg width="24" height="24" viewBox="0 0 24 24" fill="none" xmlns="http://www.w3.org/2000/svg">
<g clip-path="url(#clip0_1286_2624)">
<path d="M10.856 13.1424C9.68599 11.9724 8.80399 10.6624 8.21799 9.33341C8.09399 9.05241 8.16699 8.72341 8.38399 8.50641L9.20299 7.68841C9.87399 7.01741 9.87399 6.06841 9.28799 5.48241L8.11399 4.30841C7.33299 3.52741 6.06699 3.52741 5.28599 4.30841L4.63399 4.96041C3.89299 5.70141 3.58399 6.77041 3.78399 7.83041C4.27799 10.4434 5.79599 13.3044 8.24499 15.7534C10.694 18.2024 13.555 19.7204 16.168 20.2144C17.228 20.4144 18.297 20.1054 19.038 19.3644L19.689 18.7134C20.47 17.9324 20.47 16.6664 19.689 15.8854L18.516 14.7124C17.93 14.1264 16.98 14.1264 16.395 14.7124L15.492 15.6164C15.275 15.8334 14.946 15.9064 14.665 15.7824C13.336 15.1954 12.026 14.3124 10.856 13.1424Z" fill="#A4A7AD" stroke="#A4A7AD" stroke-width="1.5" stroke-linecap="round" stroke-linejoin="round"/>
</g>
<defs>
<clipPath id="clip0_1286_2624">
<rect width="24" height="24" fill="white"/>
</clipPath>
</defs>
</svg>
