<svg width="20" height="20" viewBox="0 0 18 16" fill="none" xmlns="http://www.w3.org/2000/svg">
<path d="M2.30769 3.88571C2.30769 1.73969 4.06411 0 6.23077 0C8.39742 0 10.1538 1.73969 10.1538 3.88571C10.1538 6.03174 8.39742 7.77143 6.23077 7.77143C4.06411 7.77143 2.30769 6.03174 2.30769 3.88571Z" fill="#595959"/>
<path d="M3.75123 9.52613L3.91563 9.50014C5.44935 9.2577 7.01219 9.2577 8.54591 9.50014L8.71031 9.52613C10.8714 9.86774 12.4615 11.714 12.4615 13.8816C12.4615 15.0516 11.504 16 10.3228 16H2.13874C0.957546 16 0 15.0516 0 13.8816C0 11.714 1.59016 9.86774 3.75123 9.52613Z" fill="#595959"/>
<path d="M11.7692 0C11.3869 0 11.0769 0.307005 11.0769 0.685714C11.0769 1.06442 11.3869 1.37143 11.7692 1.37143C13.1712 1.37143 14.3077 2.49711 14.3077 3.88571C14.3077 5.27432 13.1712 6.4 11.7692 6.4C11.3869 6.4 11.0769 6.707 11.0769 7.08571C11.0769 7.46442 11.3869 7.77143 11.7692 7.77143C13.9359 7.77143 15.6923 6.03174 15.6923 3.88571C15.6923 1.73969 13.9359 0 11.7692 0Z" fill="#595959"/>
<path d="M12.9149 9.49157C12.5326 9.49157 12.2226 9.79858 12.2226 10.1773C12.2226 10.556 12.5326 10.863 12.9149 10.863H13.8086C13.8829 10.863 13.9573 10.8688 14.0306 10.8804C15.5197 11.1158 16.6154 12.388 16.6154 13.8816C16.6154 14.2942 16.2778 14.6286 15.8613 14.6286H13.9753C13.5929 14.6286 13.283 14.9356 13.283 15.3143C13.283 15.693 13.5929 16 13.9753 16H15.8613C17.0425 16 18 15.0516 18 13.8816C18 11.714 16.4098 9.86774 14.2488 9.52613C14.1032 9.50312 13.9559 9.49157 13.8086 9.49157H12.9149Z" fill="#595959"/>
</svg>
