<svg width="20" height="20" id='img' viewBox="0 0 20 20" fill="none" xmlns="http://www.w3.org/2000/svg">
<path fill-rule="evenodd" clip-rule="evenodd" d="M9.56688 0.931C10.4513 0.910263 11.3761 1.13458 12.1135 1.65075L17.2623 5.2582C17.2625 5.25839 17.262 5.25802 17.2623 5.2582C17.7993 5.63275 18.2466 6.20557 18.5577 6.80144C18.8689 7.39766 19.0834 8.09213 19.0834 8.7485V14.8152C19.0834 17.1532 17.1738 19.0735 14.8251 19.0735H5.17508C2.82522 19.0735 0.916748 17.1521 0.916748 14.8068V8.63183C0.916748 8.01553 1.11074 7.35568 1.39134 6.78377C1.67203 6.21168 2.07572 5.65353 2.56429 5.27341C2.5644 5.27333 2.56418 5.2735 2.56429 5.27341L7.05576 1.77357C7.76799 1.21961 8.6825 0.951737 9.56688 0.931ZM7.9772 2.95718C7.97712 2.95725 7.97729 2.95712 7.9772 2.95718L3.48607 6.45677C3.22479 6.65998 2.9489 7.01462 2.73799 7.44449C2.52693 7.87466 2.41675 8.30647 2.41675 8.63183V14.8068C2.41675 16.3283 3.65827 17.5735 5.17508 17.5735H14.8251C16.343 17.5735 17.5834 16.3271 17.5834 14.8152V8.7485C17.5834 8.39654 17.4604 7.94101 17.2279 7.49556C16.9954 7.05007 16.6922 6.68927 16.4046 6.4888L16.4031 6.48774L11.2533 2.87959C10.824 2.57909 10.2281 2.41591 9.60204 2.43059C8.97613 2.44526 8.38996 2.63626 7.9772 2.95718Z" fill="#595959"/>
<path fill-rule="evenodd" clip-rule="evenodd" d="M10 11.7383C10.4142 11.7383 10.75 12.0741 10.75 12.4883V14.9883C10.75 15.4025 10.4142 15.7383 10 15.7383C9.58579 15.7383 9.25 15.4025 9.25 14.9883V12.4883C9.25 12.0741 9.58579 11.7383 10 11.7383Z" fill="#595959"/>
</svg>
