<svg width="18" height="18" viewBox="0 0 18 18" fill="none" xmlns="http://www.w3.org/2000/svg">
<path fill-rule="evenodd" clip-rule="evenodd" d="M9.00008 17.3334C13.6025 17.3334 17.3334 13.6024 17.3334 9.00002C17.3334 4.39765 13.6025 0.666687 9.00008 0.666687C4.39771 0.666687 0.666748 4.39765 0.666748 9.00002C0.666748 13.6024 4.39771 17.3334 9.00008 17.3334ZM12.7941 6.92235C13.0274 6.6679 13.0102 6.27255 12.7557 6.0393C12.5013 5.80606 12.1059 5.82325 11.8727 6.0777L7.75009 10.5751L6.12747 8.80497C5.89423 8.55052 5.49887 8.53333 5.24442 8.76658C4.98997 8.99982 4.97278 9.39518 5.20603 9.64962L7.28936 11.9224C7.40774 12.0515 7.57489 12.125 7.75009 12.125C7.92528 12.125 8.09243 12.0515 8.21081 11.9224L12.7941 6.92235Z" fill="#36BD69"/>
</svg>
