<svg width="20" height="20" viewBox="0 0 20 20" fill="none" xmlns="http://www.w3.org/2000/svg">
<path d="M12.803 6.13653C12.5101 6.42942 12.5101 6.9043 12.803 7.19719C13.0959 7.49008 13.5708 7.49008 13.8637 7.19719L12.803 6.13653ZM15.8338 5.22707C16.1267 4.93418 16.1267 4.45931 15.8338 4.16641C15.5409 3.87352 15.066 3.87352 14.7732 4.16641L15.8338 5.22707ZM4.16659 14.773C3.8737 15.0659 3.8737 15.5407 4.16659 15.8336C4.45949 16.1265 4.93436 16.1265 5.22725 15.8336L4.16659 14.773ZM7.19721 13.8637C7.49011 13.5708 7.49011 13.0959 7.19721 12.803C6.90432 12.5101 6.42945 12.5101 6.13655 12.803L7.19721 13.8637ZM14.7138 9.25C14.2996 9.25 13.9638 9.58579 13.9638 10C13.9638 10.4142 14.2996 10.75 14.7138 10.75V9.25ZM17.5 10.75C17.9142 10.75 18.25 10.4142 18.25 10C18.25 9.58579 17.9142 9.25 17.5 9.25V10.75ZM2.5 9.25C2.08579 9.25 1.75 9.58579 1.75 10C1.75 10.4142 2.08579 10.75 2.5 10.75V9.25ZM5.28596 10.75C5.70017 10.75 6.03596 10.4142 6.03596 10C6.03596 9.58579 5.70017 9.25 5.28596 9.25V10.75ZM9.25 5.28618C9.25 5.70039 9.58579 6.03618 10 6.03618C10.4142 6.03618 10.75 5.70039 10.75 5.28618L9.25 5.28618ZM10.75 2.5C10.75 2.08579 10.4142 1.75 10 1.75C9.58578 1.75 9.25 2.08579 9.25 2.5L10.75 2.5ZM9.25 17.5C9.25 17.9142 9.58579 18.25 10 18.25C10.4142 18.25 10.75 17.9142 10.75 17.5H9.25ZM10.75 14.714C10.75 14.2998 10.4142 13.964 10 13.964C9.58579 13.964 9.25 14.2998 9.25 14.714L10.75 14.714ZM6.13653 7.19719C6.42943 7.49009 6.9043 7.49009 7.19719 7.19719C7.49009 6.9043 7.49009 6.42943 7.19719 6.13653L6.13653 7.19719ZM5.22707 4.16641C4.93418 3.87352 4.45931 3.87352 4.16641 4.16641C3.87352 4.45931 3.87352 4.93418 4.16641 5.22707L5.22707 4.16641ZM14.773 15.8336C15.0659 16.1265 15.5407 16.1265 15.8336 15.8336C16.1265 15.5407 16.1265 15.0659 15.8336 14.773L14.773 15.8336ZM13.8637 12.803C13.5708 12.5101 13.0959 12.5101 12.803 12.803C12.5101 13.0959 12.5101 13.5708 12.803 13.8637L13.8637 12.803ZM13.8637 7.19719L15.8338 5.22707L14.7732 4.16641L12.803 6.13653L13.8637 7.19719ZM5.22725 15.8336L7.19721 13.8637L6.13655 12.803L4.16659 14.773L5.22725 15.8336ZM14.7138 10.75H17.5V9.25H14.7138V10.75ZM2.5 10.75H5.28596V9.25H2.5V10.75ZM10.75 5.28618V2.5L9.25 2.5L9.25 5.28618L10.75 5.28618ZM10.75 17.5V14.714L9.25 14.714L9.25 17.5H10.75ZM7.19719 6.13653L5.22707 4.16641L4.16641 5.22707L6.13653 7.19719L7.19719 6.13653ZM15.8336 14.773L13.8637 12.803L12.803 13.8637L14.773 15.8336L15.8336 14.773Z" fill="#E89A06"/>
</svg>
