<svg width="403" height="306" viewBox="0 0 403 306" fill="none" xmlns="http://www.w3.org/2000/svg" id="img">
<path fill-rule="evenodd" clip-rule="evenodd" d="M207.541 12.9565C269.594 9.2295 343.698 -17.9658 384.769 19.787C426.285 57.9489 385.795 114.689 372.164 164.281C358.356 214.515 365.777 280.796 307.373 301.36C249.45 321.754 196.637 269.739 140.891 245.71C90.1745 223.85 22.634 215.49 5.39657 171.197C-12.7343 124.609 17.1282 73.2493 60.5471 39.2605C98.4609 9.58116 154.885 16.1191 207.541 12.9565Z" fill="#FFEDF1"/>
<path d="M129.494 154.756L148.326 151.635L151.681 171.516L132.85 174.637L138.374 207.728L113.575 211.883L108.05 178.792L44.0124 189.465L40.87 174.425L87.8617 63.3567L113.455 59.0921L129.494 154.756ZM64.6742 165.595L104.695 158.911L94.5981 98.5759L93.9364 98.4836L92.6145 103.243L64.6742 165.595Z" fill="#4B0012"/>
<path d="M145.226 152.171L164.057 149.049L167.412 168.931L148.581 172.052L154.105 205.144L129.306 209.299L123.782 176.207L59.7442 186.882L56.6022 171.842L103.596 60.7718L129.189 56.5066L145.226 152.171ZM80.3945 162.956L120.415 156.271L110.32 95.9356L109.658 95.8433L108.336 100.603L80.3945 162.956Z" fill="url(#paint0_linear)"/>
<path d="M57.553 174.666C57.553 174.666 57.3533 174.824 57.0097 175.13C56.6661 175.435 56.1669 175.832 55.5119 176.32C54.2019 177.296 52.3808 178.613 50.3482 180.033C48.3155 181.453 46.4149 182.671 45.0812 183.535C44.4144 183.968 43.8474 184.321 43.4361 184.582C43.0249 184.844 42.8133 184.947 42.8133 184.947C42.8133 184.947 43.013 184.789 43.3684 184.539C43.7679 184.221 44.3348 183.868 44.9458 183.448C46.3235 182.516 48.1564 181.254 50.1891 179.834C52.1659 178.426 53.9988 177.165 55.3646 176.177C55.9756 175.756 56.5308 175.348 56.942 175.086C57.3414 174.769 57.5412 174.61 57.553 174.666Z" fill="#E8505B"/>
<path d="M63.1037 156.038C63.1037 156.038 62.86 156.264 62.3607 156.661C61.8615 157.058 61.1625 157.613 60.2519 158.272C58.4308 159.589 55.9547 161.394 53.1554 163.325C50.3561 165.257 47.8123 167.018 45.9117 168.236C44.9893 168.839 44.2226 169.35 43.6996 169.636C43.1885 169.977 42.8771 170.159 42.8652 170.104C42.8652 170.104 43.109 169.878 43.6201 169.536C44.1752 169.128 44.886 168.628 45.8084 168.025C47.6972 166.752 50.1852 165.003 52.9845 163.071C55.7838 161.139 58.2718 159.39 60.1487 158.061C61.0152 157.47 61.7701 156.903 62.3371 156.55C62.7923 156.22 63.1037 156.038 63.1037 156.038Z" fill="#E8505B"/>
<path d="M71.0544 138.816C71.0544 138.816 70.8106 139.042 70.2555 139.451C69.7562 139.847 69.0014 140.415 68.035 141.085C66.158 142.414 63.5144 144.255 60.6034 146.21C57.6923 148.165 54.981 149.962 53.0245 151.192C52.0463 151.806 51.2796 152.318 50.7008 152.615C50.1338 152.968 49.8224 153.151 49.8106 153.095C49.8106 153.095 50.1101 152.857 50.6212 152.516C51.1764 152.107 51.9431 151.596 52.9213 150.981C54.8659 149.696 57.5214 147.911 60.4325 145.955C63.3435 144 65.999 142.215 67.9318 140.874C68.8542 140.272 69.609 139.704 70.2318 139.339C70.7429 138.998 71.0544 138.816 71.0544 138.816Z" fill="#E8505B"/>
<path d="M119.159 146.529C119.159 146.529 118.959 146.688 118.616 146.994C118.26 147.243 117.705 147.652 117.106 148.128C115.796 149.104 113.963 150.366 111.918 151.73C109.874 153.094 107.973 154.312 106.64 155.177C105.973 155.609 105.406 155.962 104.983 156.168C104.56 156.374 104.36 156.533 104.348 156.477C104.348 156.477 104.548 156.318 104.903 156.068C105.315 155.807 105.87 155.398 106.481 154.978C107.858 154.045 109.703 152.84 111.748 151.475C113.736 150.123 115.569 148.861 116.947 147.929C117.558 147.509 118.125 147.156 118.524 146.838C118.903 146.7 119.103 146.541 119.159 146.529Z" fill="#E8505B"/>
<path d="M123.83 177.532C123.83 177.532 123.631 177.691 123.287 177.997C122.932 178.246 122.432 178.643 121.833 179.119C120.579 180.083 118.802 181.333 116.813 182.686C114.825 184.038 113.036 185.232 111.702 186.097C111.035 186.529 110.524 186.87 110.101 187.076C109.734 187.27 109.534 187.429 109.466 187.385C109.466 187.385 109.666 187.226 110.021 186.977C110.433 186.715 110.932 186.318 111.543 185.898C112.921 184.966 114.654 183.783 116.642 182.431C118.575 181.09 120.352 179.841 121.674 178.92C122.285 178.5 122.796 178.159 123.196 177.841C123.619 177.635 123.83 177.532 123.83 177.532Z" fill="#E8505B"/>
<path d="M125.882 188.269C125.882 188.269 125.682 188.427 125.338 188.733C124.983 188.983 124.484 189.38 123.884 189.856C122.63 190.82 120.853 192.069 118.865 193.422C116.876 194.774 115.087 195.968 113.753 196.833C113.086 197.265 112.575 197.606 112.152 197.812C111.785 198.007 111.585 198.165 111.518 198.122C111.518 198.122 111.717 197.963 112.073 197.713C112.484 197.451 112.983 197.054 113.594 196.634C114.972 195.702 116.705 194.52 118.694 193.167C120.626 191.827 122.403 190.577 123.725 189.657C124.336 189.236 124.847 188.895 125.247 188.578C125.626 188.439 125.826 188.28 125.882 188.269Z" fill="#E8505B"/>
<path d="M127.887 199.069C127.887 199.069 127.687 199.228 127.344 199.534C126.988 199.784 126.489 200.18 125.89 200.656C124.636 201.621 122.859 202.87 120.87 204.223C118.881 205.575 117.092 206.769 115.759 207.634C115.092 208.066 114.581 208.407 114.158 208.613C113.79 208.807 113.591 208.966 113.523 208.922C113.523 208.922 113.723 208.764 114.078 208.514C114.489 208.252 114.989 207.855 115.6 207.435C116.977 206.503 118.71 205.321 120.699 203.968C122.632 202.627 124.409 201.378 125.731 200.457C126.342 200.037 126.853 199.696 127.252 199.379C127.675 199.172 127.887 199.069 127.887 199.069Z" fill="#E8505B"/>
<path d="M117.034 135.173C117.034 135.173 116.834 135.332 116.491 135.637C116.135 135.887 115.58 136.296 114.981 136.772C113.671 137.748 111.838 139.009 109.793 140.373C107.749 141.738 105.848 142.955 104.515 143.82C103.848 144.252 103.281 144.605 102.858 144.811C102.435 145.018 102.235 145.176 102.223 145.121C102.223 145.121 102.423 144.962 102.778 144.712C103.19 144.45 103.745 144.042 104.356 143.621C105.733 142.689 107.578 141.483 109.623 140.119C111.611 138.766 113.444 137.505 114.822 136.573C115.433 136.152 116 135.799 116.399 135.482C116.766 135.288 117.034 135.173 117.034 135.173Z" fill="#E8505B"/>
<path d="M114.909 123.816C114.909 123.816 114.709 123.974 114.366 124.28C114.01 124.53 113.455 124.938 112.856 125.414C111.546 126.39 109.713 127.652 107.669 129.016C105.624 130.381 103.724 131.598 102.39 132.463C101.723 132.895 101.156 133.248 100.733 133.454C100.31 133.66 100.11 133.819 100.098 133.763C100.098 133.763 100.298 133.605 100.653 133.355C101.065 133.093 101.62 132.684 102.231 132.264C103.609 131.332 105.453 130.126 107.498 128.762C109.486 127.409 111.319 126.148 112.697 125.216C113.308 124.795 113.875 124.442 114.274 124.125C114.698 123.919 114.897 123.76 114.909 123.816Z" fill="#E8505B"/>
<path d="M112.773 112.402C112.773 112.402 112.573 112.561 112.286 112.855C111.93 113.105 111.431 113.501 110.832 113.977C109.566 114.886 107.844 116.123 105.912 117.464C103.967 118.749 102.178 119.943 100.833 120.752C100.166 121.184 99.6428 121.47 99.2756 121.664C98.9083 121.858 98.6967 121.961 98.6967 121.961C98.6967 121.961 98.8965 121.803 99.2519 121.553C99.6631 121.291 100.174 120.95 100.785 120.529C102.119 119.665 103.852 118.483 105.797 117.198C107.741 115.913 109.419 114.743 110.796 113.81C111.407 113.39 111.918 113.049 112.33 112.787C112.561 112.505 112.773 112.402 112.773 112.402Z" fill="#E8505B"/>
<path d="M111.808 101.558C111.82 101.613 110.71 102.43 109.264 103.319C107.819 104.207 106.629 104.925 106.549 104.825C106.537 104.77 107.648 103.953 109.093 103.064C110.539 102.176 111.797 101.502 111.808 101.558Z" fill="#E8505B"/>
<path d="M78.8322 121.052C78.8322 121.052 78.5885 121.278 78.0333 121.687C77.5341 122.084 76.7792 122.651 75.8128 123.322C73.9359 124.65 71.2922 126.491 68.3812 128.446C65.4702 130.402 62.7588 132.199 60.8024 133.428C59.8241 134.043 59.0574 134.554 58.4786 134.852C57.9116 135.205 57.6002 135.387 57.5884 135.331C57.5884 135.331 57.888 135.093 58.3991 134.752C58.9542 134.343 59.7209 133.832 60.6991 133.217C62.6438 131.932 65.2993 130.147 68.2103 128.192C71.1213 126.236 73.7768 124.451 75.7096 123.111C76.632 122.508 77.3868 121.941 78.0097 121.576C78.5208 121.235 78.8322 121.052 78.8322 121.052Z" fill="#E8505B"/>
<path d="M86.6095 103.288C86.6095 103.288 86.3658 103.514 85.8107 103.922C85.3114 104.319 84.5566 104.886 83.5902 105.557C81.7132 106.886 79.0696 108.726 76.1585 110.682C73.2475 112.637 70.5362 114.434 68.5797 115.663C67.6015 116.278 66.8348 116.79 66.256 117.087C65.689 117.44 65.3776 117.622 65.3657 117.567C65.3657 117.567 65.6653 117.329 66.1764 116.987C66.7315 116.579 67.4982 116.067 68.4765 115.452C70.4211 114.167 73.0766 112.383 75.9876 110.427C78.8987 108.472 81.5541 106.687 83.4869 105.346C84.4093 104.743 85.1642 104.176 85.787 103.811C86.2981 103.47 86.6095 103.288 86.6095 103.288Z" fill="#E8505B"/>
<path d="M93.6066 85.6958C93.6066 85.6958 93.3629 85.922 92.8078 86.3306C92.3085 86.7274 91.5536 87.2947 90.5872 87.9651C88.7103 89.2939 86.0667 91.1345 83.1556 93.0899C80.2446 95.0453 77.5333 96.8421 75.5768 98.0715C74.5985 98.6862 73.8318 99.1978 73.253 99.4951C72.6861 99.8481 72.3746 100.03 72.3628 99.9748C72.3628 99.9748 72.6624 99.7368 73.1735 99.3956C73.7286 98.987 74.4953 98.4754 75.4735 97.8607C77.4182 96.5756 80.0737 94.7907 82.9847 92.8353C85.8957 90.8799 88.5512 89.095 90.484 87.7543C91.4064 87.1514 92.1612 86.5841 92.7841 86.2193C93.2952 85.8782 93.6066 85.6958 93.6066 85.6958Z" fill="#E8505B"/>
<path d="M101.066 68.6333C101.066 68.6333 100.822 68.8595 100.267 69.2681C99.7679 69.6649 99.0131 70.2322 98.0467 70.9026C96.1698 72.2314 93.5261 74.072 90.6151 76.0274C87.7041 77.9828 84.9927 79.7796 83.0362 81.009C82.058 81.6237 81.2913 82.1353 80.7125 82.4326C80.1455 82.7856 79.8341 82.968 79.8223 82.9123C79.8223 82.9123 80.1218 82.6743 80.633 82.3332C81.1881 81.9245 81.9548 81.4129 82.933 80.7982C84.8777 79.5131 87.5331 77.7282 90.4442 75.7728C93.3552 73.8174 96.0107 72.0325 97.9435 70.6918C98.8659 70.0889 99.6207 69.5216 100.244 69.1568C100.755 68.8157 101.066 68.6333 101.066 68.6333Z" fill="#E8505B"/>
<path fill-rule="evenodd" clip-rule="evenodd" d="M230.593 118.301C230.48 106.169 228.358 97.2071 224.226 91.4173C220.095 85.6269 214.121 82.7692 206.307 82.8442C198.492 82.9198 192.589 85.891 188.601 91.7586C184.611 97.6262 182.673 106.628 182.786 118.759L183.168 159.934C183.281 172.135 185.42 181.147 189.587 186.97C193.752 192.794 199.742 195.668 207.557 195.593C215.372 195.518 221.256 192.547 225.212 186.68C229.167 180.812 231.088 171.744 230.975 159.475L230.593 118.301ZM255.712 155.748C255.891 175.016 251.677 189.744 243.073 199.935C234.468 210.128 222.69 215.294 207.742 215.438C192.723 215.582 180.784 210.643 171.924 200.617C163.064 190.594 158.545 175.949 158.366 156.681L158.051 122.795C157.873 103.598 162.085 88.8672 170.689 78.6081C179.293 68.3485 191.103 63.1468 206.123 63.003C221.072 62.8592 232.979 67.8337 241.839 77.926C250.7 88.0177 255.219 102.664 255.397 121.862L255.712 155.748Z" fill="#4B0012"/>
<path fill-rule="evenodd" clip-rule="evenodd" d="M243.34 118.303C243.227 106.171 241.093 97.2095 236.937 91.4197C232.783 85.6293 226.774 82.7716 218.915 82.8472C211.055 82.9221 205.119 85.8934 201.107 91.761C197.095 97.6286 195.146 106.63 195.259 118.762L195.644 159.937C195.757 172.138 197.908 181.15 202.099 186.973C206.288 192.797 212.313 195.67 220.173 195.595C228.032 195.52 233.951 192.55 237.929 186.682C241.907 180.815 243.839 171.747 243.724 159.478L243.34 118.303ZM268.604 155.748C268.784 175.016 264.546 189.745 255.893 199.935C247.238 210.128 235.393 215.294 220.359 215.438C205.253 215.582 193.247 210.642 184.336 200.617C175.424 190.594 170.879 175.949 170.7 156.682L170.383 122.795C170.204 103.598 174.44 88.8672 183.094 78.6081C191.747 68.3485 203.625 63.1468 218.73 63.003C233.765 62.8592 245.74 67.8337 254.651 77.926C263.563 88.0177 268.108 102.664 268.288 121.862L268.604 155.748Z" fill="url(#paint1_linear)"/>
<path fill-rule="evenodd" clip-rule="evenodd" d="M173.281 119.542C173.309 119.617 169.995 120.931 165.879 122.475C161.761 124.019 158.402 125.209 158.373 125.134C158.345 125.059 161.659 123.746 165.776 122.202C169.893 120.658 173.253 119.467 173.281 119.542Z" fill="#FF4F5B"/>
<path fill-rule="evenodd" clip-rule="evenodd" d="M173.54 132.933C173.568 133.009 170.254 134.321 166.138 135.865C162.02 137.41 158.661 138.6 158.632 138.525C158.604 138.45 161.918 137.137 166.035 135.592C170.152 134.049 173.512 132.858 173.54 132.933Z" fill="#FF4F5B"/>
<path fill-rule="evenodd" clip-rule="evenodd" d="M173.238 146.324C173.266 146.399 169.952 147.711 165.836 149.255C161.718 150.8 158.359 151.991 158.33 151.915C158.302 151.84 161.616 150.528 165.733 148.983C169.85 147.439 173.21 146.248 173.238 146.324Z" fill="#FF4F5B"/>
<path fill-rule="evenodd" clip-rule="evenodd" d="M174.057 159.714C174.085 159.79 170.771 161.102 166.655 162.646C162.537 164.191 159.178 165.382 159.149 165.306C159.121 165.231 162.435 163.918 166.552 162.373C170.669 160.83 174.029 159.639 174.057 159.714Z" fill="#FF4F5B"/>
<path fill-rule="evenodd" clip-rule="evenodd" d="M174.316 173.102C174.323 173.121 174.14 173.21 173.802 173.355C173.465 173.501 172.974 173.702 172.365 173.945C171.146 174.43 169.456 175.081 167.582 175.784C165.708 176.487 164.006 177.107 162.769 177.544C162.15 177.761 161.648 177.933 161.299 178.046C160.949 178.158 160.753 178.211 160.746 178.193C160.738 178.174 160.922 178.084 161.259 177.94C161.596 177.794 162.087 177.593 162.696 177.351C163.915 176.865 165.605 176.214 167.479 175.511C169.353 174.809 171.055 174.187 172.292 173.751C172.911 173.534 173.413 173.362 173.762 173.25C174.112 173.137 174.308 173.083 174.316 173.102Z" fill="#FF4F5B"/>
<path fill-rule="evenodd" clip-rule="evenodd" d="M177.023 185.352C177.037 185.389 176.388 185.672 175.326 186.099C174.264 186.525 172.791 187.095 171.157 187.708C169.523 188.321 168.037 188.861 166.957 189.237C165.877 189.615 165.202 189.829 165.188 189.791C165.173 189.753 165.823 189.471 166.885 189.045C167.946 188.619 169.42 188.048 171.054 187.436C172.688 186.822 174.173 186.283 175.253 185.906C176.333 185.529 177.009 185.315 177.023 185.352Z" fill="#FF4F5B"/>
<path fill-rule="evenodd" clip-rule="evenodd" d="M184.601 197.858C184.622 197.892 184.109 198.259 183.261 198.824C182.413 199.388 181.231 200.151 179.915 200.979C178.599 201.807 177.4 202.542 176.523 203.062C175.647 203.583 175.095 203.888 175.073 203.853C175.052 203.819 175.566 203.453 176.414 202.888C177.262 202.324 178.444 201.561 179.759 200.733C181.075 199.905 182.274 199.169 183.15 198.649C184.027 198.129 184.579 197.824 184.601 197.858Z" fill="#FF4F5B"/>
<path fill-rule="evenodd" clip-rule="evenodd" d="M204.444 203.959C204.458 203.996 203.881 204.251 202.937 204.634C201.991 205.017 200.68 205.526 199.224 206.072C197.769 206.618 196.445 207.097 195.482 207.43C194.519 207.763 193.916 207.951 193.902 207.913C193.888 207.875 194.465 207.62 195.409 207.237C196.354 206.855 197.666 206.345 199.122 205.799C200.577 205.253 201.901 204.774 202.864 204.441C203.827 204.108 204.43 203.921 204.444 203.959Z" fill="#FF4F5B"/>
<path fill-rule="evenodd" clip-rule="evenodd" d="M173.922 103.312C173.951 103.388 170.636 104.7 166.52 106.244C162.403 107.789 159.042 108.979 159.014 108.904C158.986 108.828 162.3 107.516 166.417 105.971C170.533 104.428 173.894 103.236 173.922 103.312Z" fill="#FF4F5B"/>
<path fill-rule="evenodd" clip-rule="evenodd" d="M179.175 86.6134C179.204 86.689 175.61 88.1064 171.149 89.78C166.686 91.4537 163.047 92.7491 163.019 92.6735C162.991 92.5985 166.584 91.1812 171.046 89.507C175.507 87.8339 179.147 86.5385 179.175 86.6134Z" fill="#FF4F5B"/>
<path fill-rule="evenodd" clip-rule="evenodd" d="M192.757 70.0855C192.785 70.161 188.228 71.9398 182.579 74.0589C176.928 76.1785 172.326 77.8348 172.297 77.7599C172.269 77.6843 176.826 75.9055 182.476 73.7858C188.125 71.6673 192.728 70.0105 192.757 70.0855Z" fill="#FF4F5B"/>
<path fill-rule="evenodd" clip-rule="evenodd" d="M171.594 104.027C171.59 104.007 171.93 103.913 172.553 103.76C172.863 103.679 173.245 103.59 173.695 103.516C174.143 103.44 174.652 103.331 175.223 103.275C175.792 103.202 176.416 103.128 177.091 103.098C177.764 103.039 178.485 103.043 179.244 103.035C180.762 103.06 182.43 103.188 184.159 103.48C185.885 103.788 187.499 104.23 188.936 104.718C189.648 104.981 190.328 105.22 190.942 105.503C191.566 105.759 192.128 106.039 192.639 106.299C193.158 106.545 193.599 106.819 193.996 107.042C194.394 107.262 194.724 107.475 194.988 107.656C195.521 108.01 195.811 108.213 195.8 108.23C195.788 108.247 195.478 108.076 194.928 107.752C194.656 107.587 194.319 107.389 193.916 107.184C193.514 106.975 193.068 106.716 192.547 106.484C192.034 106.237 191.47 105.97 190.847 105.725C190.234 105.455 189.556 105.226 188.848 104.972C187.419 104.502 185.819 104.072 184.108 103.767C182.396 103.477 180.744 103.343 179.241 103.303C178.488 103.304 177.772 103.291 177.104 103.338C176.435 103.359 175.813 103.421 175.247 103.48C174.678 103.522 174.171 103.616 173.722 103.677C173.272 103.735 172.888 103.807 172.576 103.87C171.949 103.99 171.599 104.046 171.594 104.027Z" fill="white"/>
<path opacity="0.2" d="M204.591 88.637L208.056 85.4522L209.839 86.1562L235.265 66.1004L227.958 63.3598L220.12 60.5057C220.12 60.5057 197.811 79.5879 198.393 80.0571C198.975 80.5263 200.701 81.4953 200.701 81.4953L198.392 83.6984C198.392 83.6984 191.065 80.2794 185.043 81.6877C184.613 81.8054 184.307 81.9723 184.167 82.2046C180.365 81.9978 178.041 82.6617 178.041 82.6617L154.282 126.04C154.282 126.04 174.026 139.775 190.16 125.155C201.064 115.276 204.197 104.437 202.803 96.3165C204.35 94.1001 205.163 90.5876 204.591 88.637Z" fill="black"/>
<path d="M187.118 79.3479C183.143 75.5749 176.177 75.1252 165.932 78.6044C161.401 80.1221 158.265 82.7178 158.265 82.7178C158.265 82.7178 146.384 90.8221 148.072 100.017C148.072 100.017 141.568 108.711 151.833 119.375C162.14 130.056 183.884 123.928 193.674 112.986C203.464 102.044 204.471 87.9702 192.319 81.3528C192.319 81.3528 188.623 80.7565 187.118 79.3479Z" fill="#E1ECFD"/>
<path d="M183.846 94.0604C183.846 94.0604 185.48 92.8367 187.344 89.212C188.798 86.3836 188.715 82.7094 188.332 80.1621C187.85 79.9242 187.385 79.6449 187.078 79.3317C183.369 75.8555 177.106 75.2041 168.033 77.9003C168.075 77.9166 176.688 78.2018 180.885 81.5353C185.081 84.8687 183.846 94.0604 183.846 94.0604Z" fill="#78869C"/>
<path d="M186.766 90.1849C183.899 95.3781 173.455 104.577 161.51 105.564C149.565 106.551 148.079 100.119 148.079 100.119L147.996 100.086C147.98 100.128 147.964 100.169 147.889 100.236C148.042 101.063 150.391 113.682 165.991 111.454C181.235 109.277 188.302 96.7327 188.302 96.7327L189.825 81.4736C189.795 82.0365 189.338 85.4978 186.766 90.1849Z" fill="#78869C"/>
<path d="M189.901 81.4062C189.918 81.3638 189.892 81.3047 189.892 81.3047L189.901 81.4062Z" fill="#78869C"/>
<path d="M173.725 78.42C168.764 78.4746 164.285 80.5878 164.285 80.5878L165.266 81.5022C166.787 80.8087 170.136 79.7349 173.465 79.5632C173.555 79.2152 173.66 78.8258 173.725 78.42Z" fill="#3A4C68"/>
<path d="M182.531 85.0098C183.052 85.024 183.599 85.0961 184.105 85.1519C183.965 83.5635 183.188 82.011 181.493 80.7191C179.607 79.3039 177.41 78.6762 175.215 78.5285C175.126 78.8765 175.036 79.2245 174.988 79.5888C177.555 79.6439 179.96 80.3533 181.451 82.2834C182.1 83.0668 182.444 84.017 182.531 85.0098Z" fill="#3A4C68"/>
<path d="M193.458 81.9906C200.692 86.8584 199.37 97.118 190.03 106.8C180.69 116.482 162.071 121.496 152.468 116.316C145.171 112.334 145.856 105.991 146.556 103.249C145.412 106.871 145.042 113.145 151.672 120.027C161.979 130.707 184.766 124.608 194.557 113.666C204.033 103.031 204.882 88.7518 193.458 81.9906Z" fill="#83001F"/>
<path d="M182.48 86.4726C181.967 90.1991 178.612 93.7145 178.612 93.7145L179.958 94.917C179.958 94.917 183.642 90.8126 184.112 86.5897C183.566 86.5176 183.019 86.4455 182.48 86.4726Z" fill="#3A4C68"/>
<path d="M196.515 84.2043C195.342 83.1666 193.955 82.1878 192.362 81.3672C192.362 81.3672 192.138 81.3268 191.732 81.2623C201.645 87.2357 196.215 97.2153 191.596 103.202C186.885 109.297 167.97 122.1 154.953 116.579C143.993 111.917 146.137 104.187 147.096 101.882C146.629 102.943 146.18 104.443 145.997 106.24C146.008 114.342 152.988 119.972 162.915 119.482C174.117 118.92 189.696 111.892 196.258 99.5323C200.053 92.3571 198.507 87.2908 196.515 84.2043Z" fill="#78869C"/>
<path d="M195.012 113.846C203.525 104.317 204.637 91.6746 196.622 84.2943C204.032 93.4482 196.231 104.696 192.117 108.918C188.003 113.14 172.431 125.49 158.31 121.306C144.189 117.122 146.055 106.214 146.055 106.214L145.997 106.239C145.657 109.89 146.738 114.677 151.672 120.027C162.587 131.715 185.222 124.788 195.012 113.846Z" fill="#83001F"/>
<path d="M195.012 113.852C196.726 111.941 198.108 109.899 199.225 107.801C199.028 108.058 198.845 108.034 198.572 108.118C198.3 108.202 198.01 108.327 197.788 108.527C197.639 108.66 197.491 108.793 197.317 108.868C196.896 109.085 196.39 109.03 195.918 108.891C195.512 108.827 195.08 108.704 194.674 108.64C194.368 108.567 194.003 108.519 193.847 108.792C193.756 108.9 193.732 109.083 193.766 109.24C193.87 110.191 194.85 110.865 195.11 111.783C195.305 112.626 194.787 113.572 194.018 113.939C193.424 114.231 192.849 113.622 192.253 113.674C192.196 113.699 192.154 113.683 192.08 113.749C192.022 113.774 192.031 113.873 191.998 113.956C191.966 114.279 192.034 114.593 192.044 114.933C192.053 115.272 192.022 115.595 191.783 115.836C191.569 116.135 191.155 116.211 190.832 116.179C190.467 116.131 190.135 116 189.82 115.828C189.339 115.59 188.932 115.286 188.483 114.965C188.375 114.874 188.308 114.8 188.168 114.792C188.043 114.743 187.927 114.793 187.837 114.901C187.804 114.984 187.813 115.084 187.821 115.183C187.966 116.15 188.326 117.059 188.289 118.003C188.274 118.284 188.184 118.632 187.895 118.758C187.664 118.858 187.456 118.776 187.191 118.719C186.967 118.679 186.653 118.747 186.571 118.954C186.505 119.12 186.581 119.293 186.573 119.434C186.533 119.657 186.326 119.816 186.128 119.833C185.912 119.892 185.705 119.81 185.498 119.728C184.834 119.466 184.384 118.905 183.976 118.361C183.768 118.039 183.559 117.717 183.26 117.503C183.219 117.487 183.136 117.454 183.078 117.479C183.02 117.504 182.988 117.587 183.013 117.645C182.916 118.374 183.375 119.034 183.436 119.729C183.505 120.523 183.045 121.204 182.575 121.785C182.287 122.15 181.84 122.31 181.394 122.469C179.823 123.047 177.901 122.815 176.835 121.388C176.768 121.314 176.718 121.198 176.594 121.149C176.345 121.051 176.114 121.391 176.058 121.656C176.009 122.021 176.044 122.418 176.013 122.741C175.964 123.105 175.859 123.494 175.578 123.719C175.297 123.944 174.801 123.987 174.592 123.665C174.434 123.459 174.449 123.178 174.233 122.997C174.017 122.815 173.661 122.867 173.422 123.108C173.199 123.307 173.126 123.614 172.97 123.888C172.855 124.178 172.658 124.435 172.385 124.519C171.996 124.653 171.614 124.407 171.364 124.068C171.156 123.747 171.022 123.358 170.813 123.036C170.621 122.673 170.314 122.36 169.973 122.13C169.89 122.097 169.824 122.023 169.766 122.048C169.666 122.056 169.65 122.098 169.576 122.164C169.304 122.488 169.405 122.96 169.482 123.373C169.558 123.787 169.602 124.283 169.263 124.533C169.04 124.732 168.717 124.701 168.436 124.685C168.426 124.346 168.333 123.974 168.141 123.611C168.016 123.322 167.666 122.992 167.361 123.159C167.187 123.234 167.147 123.458 167.081 123.624C166.917 124.038 166.613 124.445 166.208 124.621C165.803 124.796 165.231 124.666 164.981 124.328C164.889 124.196 164.855 124.039 164.764 123.907C164.496 123.37 163.866 123.025 163.228 123.061C163.029 123.079 162.872 123.112 162.69 123.088C162.002 123.009 161.684 122.116 161.045 121.912C160.1 121.635 159.089 121.523 158.144 121.246C149.346 118.636 146.748 113.442 146.054 109.861L146.012 109.845C146.555 112.839 148.135 116.241 151.522 119.926C162.587 131.72 185.222 124.794 195.012 113.852Z" fill="#4B0012"/>
<path d="M201.301 93.8133C201.285 93.8547 201.252 93.9377 201.235 93.9791C201.145 94.0871 201.029 94.1372 200.913 94.1874C200.624 94.3128 200.351 94.3967 200.053 94.4228C199.971 94.6301 200.27 94.844 200.461 94.9673C200.735 95.1234 200.968 95.2631 201.184 95.4442C201.209 95.502 201.292 95.5348 201.317 95.5926C201.326 95.6919 201.235 95.7999 201.161 95.8664C201.045 95.9166 200.93 95.9667 200.855 96.0332C200.839 96.0747 200.765 96.1412 200.806 96.1576C200.831 96.2154 200.831 96.2154 200.873 96.2318C201.105 96.3715 201.338 96.5112 201.496 96.7174C202.029 97.311 201.103 97.7122 200.989 98.2424C200.932 98.5075 201.174 98.7464 201.2 99.0443C201.201 99.2843 201.045 99.558 200.813 99.6584C200.582 99.7587 200.325 99.8012 200.069 99.8437C199.812 99.8861 199.556 99.9286 199.299 99.9711C199.2 99.9798 199.142 100.005 199.068 100.071C198.919 100.205 199.061 100.452 199.194 100.601C199.477 100.856 199.834 101.045 200.133 101.259C200.607 101.637 201.09 102.355 200.321 102.723C200.09 102.823 199.801 102.948 199.76 103.172C199.687 103.479 200.028 103.709 200.054 104.007C200.071 104.205 199.932 104.438 199.742 104.554C199.552 104.671 199.353 104.688 199.138 104.747C198.583 104.816 198.045 104.843 197.54 104.787C197.498 104.771 197.399 104.78 197.382 104.821C197.366 104.862 197.366 104.862 197.35 104.904C197.335 105.425 197.768 105.788 198.191 106.051C198.49 106.265 198.806 106.437 198.973 106.742C199.089 106.932 199.332 107.411 199.208 107.602C200.218 105.653 200.996 103.564 201.467 101.402C201.808 99.8113 201.983 98.1553 201.917 96.5004C201.889 95.7225 201.836 94.8869 201.708 94.1177C201.606 93.4064 201.511 92.5544 201.193 91.902C201.012 92.1179 200.822 92.2346 200.558 92.4178C200.5 92.4429 200.426 92.5094 200.434 92.6087C200.46 92.6665 200.485 92.7244 200.526 92.7408C200.701 92.9055 200.834 93.0539 200.951 93.2437C201.241 93.3584 201.341 93.5897 201.301 93.8133Z" fill="#4B0012"/>
<path d="M159.012 102.18C157.148 101.923 155.284 101.666 153.607 100.813C151.931 99.9597 150.533 98.4016 150.351 96.5569C150.315 95.9198 150.378 95.274 150.525 94.661C150.687 94.0065 150.966 93.3018 151.586 93.0674C152.074 92.9246 152.588 93.0795 153.028 93.3011C154.115 93.826 155.12 94.5582 156.035 95.3983C156.625 95.9668 157.199 96.5767 157.806 97.1037C158.454 97.6471 159.193 98.0825 160.005 98.2114C160.734 98.3075 161.488 98.2215 162.151 98.4834C162.939 98.7944 163.39 99.5952 164.096 100.114C164.57 100.492 165.208 100.696 165.829 100.702C166.774 100.739 167.757 100.313 168.702 100.59C168.737 100.987 168.258 101.229 167.869 101.363C166.761 101.741 165.621 102.201 164.454 102.363C163.287 102.525 162.144 102.506 160.992 102.386C160.288 102.348 159.642 102.285 159.012 102.18Z" fill="#78869C"/>
<path d="M186.043 67.9975C186.043 67.9975 185.575 65.1775 186.654 63.7824C187.733 62.3874 202.892 52.175 219.325 50.9944C235.757 49.8138 247.074 62.1865 247.583 70.725L231.583 64.7452C231.583 64.7452 231.245 61.3535 230.614 61.0087C230.614 61.0087 224.426 60.5308 213.741 65.6092C203.039 70.7289 197.896 76.2217 195.864 75.4195C193.831 74.6174 186.043 67.9975 186.043 67.9975Z" fill="#E1ECFD"/>
<path d="M244.306 66.0316L238.687 59.2616L230.653 58.9656L230.613 61.0099C231.227 61.3962 231.581 64.7464 231.581 64.7464L244.189 69.4832L244.306 66.0316Z" fill="#9E9E9E"/>
<path d="M243.609 69.2511L247.582 70.7234C247.396 67.9186 246.073 64.7134 243.725 61.6781C241.144 58.5031 237.465 56.0447 225.588 57.5861C213.711 59.1276 197.411 69.8001 197.074 70.2898C196.72 70.821 196.023 74.2834 196.023 74.2834C196.023 74.2834 196.349 71.1537 196.355 70.5329C196.377 69.8708 188.087 64.1552 187.341 63.8605C187.05 63.7459 186.794 63.7884 186.62 63.8636C185.624 65.2914 186.1 67.9707 186.1 67.9707C186.1 67.9707 193.888 74.5906 195.92 75.3928C197.953 76.195 203.096 70.7021 213.798 65.5824C224.499 60.4626 230.671 60.9819 230.671 60.9819C243.296 60.2151 243.609 69.2511 243.609 69.2511Z" fill="#78869C"/>
<path d="M186.017 67.9393C186.017 67.9393 186.321 65.4717 186.875 65.4031C187.413 65.3759 194.009 70.0396 194.417 70.584C194.867 71.1448 195.391 73.6998 194.598 74.0095C193.854 74.4348 186.017 67.9393 186.017 67.9393Z" fill="#3A4C68"/>
<path d="M206.173 54.668C206.173 54.668 225.419 45.3979 240.025 58.3025C240.025 58.3025 228.978 46.9465 206.173 54.668Z" fill="#78869C"/>
<path d="M196.92 68.9829C198.318 68.7202 205.172 64.238 206.485 63.4626C207.815 62.6458 204.337 62.7106 202.975 63.6103C201.612 64.51 199.34 65.5296 198.627 65.392C197.914 65.2545 197.628 64.2791 196.099 64.8734C194.611 65.484 190.31 62.78 190.04 63.5839C189.729 64.3715 195.563 69.2619 196.92 68.9829Z" fill="#78869C"/>
<path d="M191.113 93.1432C193.716 86.0726 192.605 82.0884 192.236 81.0804C192.211 81.0226 192.161 80.9069 192.136 80.8491C191.709 79.8661 190.88 77.718 191.053 77.4027C191.233 76.9468 193.841 74.9575 194.085 73.8557C194.328 72.7539 193.915 71.0095 193.191 70.2927C192.468 69.5759 187.193 65.8168 187.193 65.8168C187.193 65.8168 183.456 70.9062 181.401 70.7662C179.347 70.6262 170.458 71.7656 165.349 75.5948C161.445 78.5581 159.156 81.6798 158.547 82.4935C159.694 81.6526 164.772 78.1463 172.558 76.7634C174.453 76.4572 176.117 76.2513 177.616 76.2199C182.254 74.5528 186.281 77.1008 186.281 77.1008C187.058 78.6533 187.238 80.018 187.238 80.018C187.238 80.018 188.087 86.7261 184.503 92.6424C180.918 98.5588 176.722 101.167 177.347 103.954C177.972 106.74 180.06 107.037 181.615 106.501C183.079 106.072 188.077 101.432 191.113 93.1432Z" fill="#FF3C6A"/>
<path d="M178.866 106.66C178.866 106.66 178.824 106.644 178.866 106.66C177.944 106.201 177.369 105.351 177.099 104.094C176.727 102.366 178.102 100.705 180.005 98.437C180.837 97.4238 181.818 96.2774 182.781 94.9325C182.855 94.866 182.955 94.8573 183.038 94.89C183.104 94.9642 183.113 95.0635 183.08 95.1464C182.117 96.4913 181.12 97.6791 180.288 98.6924C178.459 100.893 177.116 102.472 177.454 104.043C177.716 105.2 178.225 105.976 179.022 106.386C179.105 106.419 179.155 106.535 179.122 106.618C179.064 106.643 178.949 106.693 178.866 106.66Z" fill="#3A4C68"/>
<path d="M172.026 74.3476C168.049 75.7966 165.499 78.0008 164.213 79.314C166.428 78.3196 169.24 77.5128 172.541 76.8033C174.428 76.3978 176.1 76.2912 177.599 76.2598C182.237 74.5927 186.264 77.1407 186.264 77.1407C183.944 72.8225 178.036 72.12 172.026 74.3476Z" fill="#371443"/>
<path d="M188.282 74.5822C188.359 74.9957 190.894 79.015 189.467 86.0226C187.561 95.333 179.824 102.294 179.483 103.884C179.143 105.715 180.291 106.934 182.399 106.089C184.455 104.649 188.51 100.212 191.071 93.1246C193.674 86.0539 192.563 82.0698 192.194 81.0617C192.169 81.0039 192.119 80.8883 192.094 80.8304C191.667 79.8475 190.838 77.6993 191.011 77.3841C191.191 76.9281 193.799 74.9388 194.043 73.8371C194.286 72.7353 193.873 70.9909 193.149 70.2741C193.133 70.3155 188.206 74.1687 188.282 74.5822Z" fill="#83001F"/>
<path d="M171.56 74.0698C171.56 74.0698 178.446 71.3253 183.609 74.0338C188.73 76.726 187.607 83.0868 187.607 83.0868C187.607 83.0868 189.083 75.9548 183.822 73.495C178.619 71.0101 171.56 74.0698 171.56 74.0698Z" fill="#613A6B"/>
<path d="M184.543 69.8504C184.543 69.8504 186.841 67.068 186.989 66.6949C187.12 66.3633 191.98 69.959 191.98 69.959C191.98 69.959 188.877 68.5903 188.105 68.2377C187.334 67.8852 187.306 67.3474 186.821 68.2102C186.295 69.0566 186.179 69.1068 185.675 69.291C185.212 69.4917 184.19 70.6216 184.543 69.8504Z" fill="#613A6B"/>
<path d="M186.801 114.485C186.941 114.253 187.122 114.037 187.312 113.92C187.618 113.754 187.999 113.76 188.354 113.709C189.082 113.565 189.693 112.991 190.437 112.806C191.24 112.596 192.234 112.749 192.653 112.052C192.842 111.695 192.782 111.24 192.789 110.859C192.776 109.8 193.368 108.788 194.26 108.229C195.036 107.721 196.194 107.46 196.372 106.524C196.429 106.259 196.386 106.002 196.427 105.779C196.537 104.528 197.876 103.811 198.376 102.667C198.696 101.978 198.643 101.143 198.88 100.422C199.067 99.825 199.479 99.2688 199.791 98.7212C200.407 97.5268 200.542 96.0945 200.147 94.7886C199.217 98.1113 198.23 101.459 196.446 104.396C195.747 105.558 194.899 106.613 194.05 107.668C192.658 109.37 191.225 111.057 189.475 112.33C188.311 113.213 187.03 113.905 185.816 114.672C183.843 115.905 182.027 117.345 180.211 118.785C181.007 118.955 181.842 118.662 182.353 118.097C182.699 117.706 182.929 117.126 183.417 116.983C184.078 116.765 184.743 117.267 185.279 116.76C185.88 116.087 186.34 115.166 186.801 114.485Z" fill="#FF3C6A"/>
<path d="M337.995 160.083L356.902 162.706L354.166 182.682L335.259 180.06L330.649 213.292L305.738 209.88L310.348 176.648L246.036 167.785L247.528 152.494L325.555 60.4494L351.257 63.9923L337.995 160.083ZM272.887 151.146L313.083 156.671L321.466 96.0731L320.862 95.7881L318.179 99.9383L272.887 151.146Z" fill="#4B0012"/>
<path d="M353.785 162.297L372.692 164.92L369.957 184.896L351.05 182.273L346.44 215.505L321.528 212.093L326.138 178.862L261.826 169.999L263.319 154.707L341.346 62.6632L367.048 66.2061L353.785 162.297ZM288.683 153.304L328.879 158.829L337.262 98.2304L336.658 97.9454L333.975 102.095L288.683 153.304Z" fill="url(#paint2_linear)"/>
<path d="M263.384 157.69C263.384 157.69 263.146 157.783 262.727 157.972C262.308 158.161 261.713 158.392 260.942 158.663C259.4 159.204 257.268 159.92 254.904 160.671C252.54 161.421 250.362 162.018 248.831 162.447C248.065 162.661 247.419 162.829 246.948 162.957C246.477 163.084 246.244 163.12 246.244 163.12C246.244 163.12 246.482 163.028 246.896 162.895C247.372 162.711 248.019 162.542 248.728 162.323C250.321 161.843 252.447 161.184 254.812 160.433C257.119 159.677 259.245 159.019 260.844 158.482C261.553 158.262 262.205 158.038 262.675 157.91C263.151 157.726 263.389 157.634 263.384 157.69Z" fill="#E8505B"/>
<path d="M274.246 141.561C274.246 141.561 273.946 141.704 273.351 141.934C272.756 142.165 271.923 142.487 270.857 142.845C268.725 143.56 265.823 144.546 262.574 145.557C259.325 146.569 256.371 147.493 254.193 148.09C253.133 148.391 252.248 148.651 251.664 148.768C251.074 148.941 250.722 149.023 250.728 148.966C250.728 148.966 251.028 148.823 251.618 148.649C252.27 148.424 253.097 148.159 254.158 147.858C256.341 147.204 259.238 146.275 262.487 145.264C265.736 144.252 268.633 143.323 270.821 142.613C271.825 142.306 272.715 141.989 273.362 141.821C273.894 141.642 274.246 141.561 274.246 141.561Z" fill="#E8505B"/>
<path d="M286.977 127.484C286.977 127.484 286.677 127.628 286.025 127.853C285.43 128.083 284.54 128.4 283.418 128.752C281.229 129.462 278.156 130.433 274.794 131.433C271.431 132.434 268.307 133.342 266.072 133.934C264.955 134.23 264.07 134.49 263.429 134.601C262.782 134.77 262.43 134.851 262.436 134.794C262.436 134.794 262.793 134.656 263.382 134.483C264.034 134.258 264.919 133.998 266.036 133.702C268.276 133.054 271.344 132.14 274.707 131.139C278.069 130.139 281.137 129.225 283.382 128.52C284.443 128.219 285.332 127.902 286.036 127.739C286.626 127.566 286.977 127.484 286.977 127.484Z" fill="#E8505B"/>
<path d="M330.591 149.158C330.591 149.158 330.353 149.251 329.933 149.44C329.519 149.573 328.868 149.798 328.153 150.074C326.612 150.616 324.485 151.275 322.126 151.969C319.767 152.663 317.59 153.26 316.059 153.688C315.293 153.902 314.646 154.071 314.181 154.142C313.716 154.212 313.477 154.304 313.483 154.248C313.483 154.248 313.721 154.156 314.135 154.023C314.605 153.895 315.257 153.671 315.966 153.451C317.559 152.971 319.68 152.369 322.039 151.675C324.341 150.975 326.468 150.317 328.061 149.837C328.77 149.617 329.416 149.449 329.892 149.265C330.296 149.245 330.534 149.153 330.591 149.158Z" fill="#E8505B"/>
<path d="M325.79 180.144C325.79 180.144 325.552 180.236 325.133 180.426C324.719 180.559 324.124 180.789 323.41 181.065C321.925 181.612 319.855 182.276 317.553 182.976C315.251 183.675 313.187 184.283 311.656 184.711C310.89 184.925 310.301 185.099 309.835 185.17C309.427 185.246 309.189 185.338 309.137 185.276C309.137 185.276 309.375 185.184 309.789 185.051C310.26 184.924 310.855 184.694 311.564 184.474C313.157 183.994 315.164 183.381 317.466 182.682C319.712 181.977 321.781 181.313 323.317 180.828C324.026 180.608 324.616 180.435 325.092 180.251C325.557 180.18 325.79 180.144 325.79 180.144Z" fill="#E8505B"/>
<path d="M324.541 191.004C324.541 191.004 324.303 191.096 323.883 191.285C323.469 191.418 322.874 191.648 322.16 191.924C320.675 192.472 318.606 193.136 316.304 193.835C314.002 194.535 311.938 195.142 310.406 195.571C309.641 195.785 309.051 195.958 308.586 196.029C308.177 196.105 307.939 196.197 307.888 196.135C307.888 196.135 308.126 196.043 308.539 195.911C309.01 195.783 309.605 195.553 310.314 195.333C311.907 194.853 313.915 194.241 316.217 193.541C318.462 192.836 320.531 192.172 322.068 191.687C322.777 191.468 323.366 191.294 323.842 191.11C324.246 191.09 324.484 190.998 324.541 191.004Z" fill="#E8505B"/>
<path d="M323.23 201.911C323.23 201.911 322.992 202.003 322.573 202.192C322.159 202.325 321.564 202.555 320.85 202.832C319.365 203.379 317.295 204.043 314.993 204.742C312.691 205.442 310.627 206.049 309.096 206.478C308.33 206.692 307.741 206.866 307.275 206.936C306.867 207.013 306.629 207.105 306.577 207.043C306.577 207.043 306.815 206.951 307.229 206.818C307.7 206.69 308.295 206.46 309.003 206.241C310.597 205.761 312.604 205.148 314.906 204.448C317.151 203.744 319.221 203.08 320.757 202.594C321.466 202.375 322.056 202.201 322.532 202.017C322.997 201.946 323.23 201.911 323.23 201.911Z" fill="#E8505B"/>
<path d="M331.954 137.687C331.954 137.687 331.716 137.779 331.297 137.968C330.883 138.101 330.231 138.326 329.517 138.602C327.975 139.144 325.849 139.803 323.49 140.497C321.131 141.191 318.953 141.788 317.422 142.216C316.656 142.431 316.01 142.599 315.544 142.67C315.079 142.741 314.841 142.833 314.846 142.776C314.846 142.776 315.084 142.684 315.498 142.551C315.969 142.424 316.621 142.199 317.329 141.979C318.923 141.499 321.044 140.897 323.403 140.203C325.705 139.504 327.831 138.845 329.424 138.365C330.133 138.145 330.78 137.977 331.256 137.793C331.664 137.717 331.954 137.687 331.954 137.687Z" fill="#E8505B"/>
<path d="M333.317 126.214C333.317 126.214 333.079 126.306 332.66 126.495C332.246 126.628 331.594 126.853 330.88 127.129C329.338 127.671 327.212 128.33 324.853 129.024C322.494 129.718 320.316 130.315 318.785 130.743C318.02 130.958 317.373 131.126 316.908 131.197C316.442 131.267 316.204 131.36 316.209 131.303C316.209 131.303 316.447 131.211 316.861 131.078C317.332 130.951 317.984 130.726 318.693 130.506C320.286 130.026 322.407 129.424 324.766 128.73C327.068 128.03 329.194 127.372 330.788 126.892C331.496 126.672 332.143 126.504 332.619 126.32C333.084 126.249 333.322 126.157 333.317 126.214Z" fill="#E8505B"/>
<path d="M334.686 114.682C334.686 114.682 334.448 114.774 334.085 114.969C333.672 115.101 333.077 115.332 332.362 115.608C330.883 116.098 328.87 116.768 326.625 117.473C324.385 118.121 322.321 118.728 320.795 119.1C320.029 119.314 319.445 119.431 319.036 119.507C318.628 119.583 318.395 119.619 318.395 119.619C318.395 119.619 318.633 119.527 319.047 119.394C319.518 119.266 320.108 119.093 320.816 118.873C322.347 118.445 324.355 117.832 326.595 117.184C328.835 116.536 330.785 115.918 332.378 115.438C333.087 115.218 333.677 115.045 334.148 114.917C334.453 114.717 334.686 114.682 334.686 114.682Z" fill="#E8505B"/>
<path d="M337.004 104.043C336.999 104.1 335.695 104.549 334.05 104.967C332.405 105.385 331.055 105.716 331.008 105.598C331.014 105.541 332.318 105.091 333.963 104.673C335.608 104.255 337.01 103.986 337.004 104.043Z" fill="#E8505B"/>
<path d="M299.707 112.839C299.707 112.839 299.407 112.982 298.755 113.207C298.16 113.437 297.27 113.754 296.148 114.107C293.959 114.817 290.886 115.787 287.524 116.788C284.161 117.788 281.037 118.697 278.802 119.288C277.685 119.584 276.8 119.844 276.159 119.956C275.512 120.124 275.16 120.206 275.166 120.149C275.166 120.149 275.523 120.011 276.112 119.837C276.764 119.612 277.649 119.352 278.766 119.056C281.006 118.408 284.074 117.494 287.437 116.494C290.799 115.493 293.867 114.58 296.112 113.875C297.173 113.574 298.062 113.257 298.766 113.094C299.356 112.92 299.707 112.839 299.707 112.839Z" fill="#E8505B"/>
<path d="M312.435 98.1993C312.435 98.1993 312.135 98.3427 311.483 98.5676C310.888 98.7978 309.998 99.1148 308.876 99.4672C306.687 100.177 303.614 101.148 300.252 102.148C296.889 103.149 293.765 104.057 291.53 104.649C290.413 104.944 289.528 105.205 288.887 105.316C288.24 105.484 287.888 105.566 287.894 105.509C287.894 105.509 288.251 105.371 288.84 105.198C289.492 104.973 290.377 104.712 291.494 104.417C293.734 103.769 296.802 102.855 300.165 101.854C303.527 100.854 306.595 99.94 308.84 99.2352C309.901 98.9342 310.79 98.6172 311.494 98.4543C312.084 98.2808 312.435 98.1993 312.435 98.1993Z" fill="#E8505B"/>
<path d="M324.368 83.4884C324.368 83.4884 324.068 83.6318 323.416 83.8567C322.821 84.0869 321.931 84.4038 320.808 84.7562C318.62 85.4663 315.547 86.4367 312.184 87.4372C308.822 88.4378 305.697 89.3462 303.463 89.9377C302.345 90.2334 301.461 90.4937 300.819 90.6053C300.173 90.7735 299.821 90.855 299.826 90.7983C299.826 90.7983 300.183 90.6602 300.773 90.4867C301.425 90.2618 302.31 90.0015 303.427 89.7058C305.667 89.0576 308.735 88.1439 312.097 87.1434C315.46 86.1428 318.527 85.2291 320.773 84.5243C321.833 84.2233 322.723 83.9063 323.427 83.7434C324.016 83.5698 324.368 83.4884 324.368 83.4884Z" fill="#E8505B"/>
<path d="M336.584 69.42C336.584 69.42 336.284 69.5634 335.632 69.7883C335.037 70.0185 334.147 70.3355 333.025 70.6879C330.836 71.398 327.763 72.3684 324.401 73.3689C321.038 74.3694 317.913 75.2778 315.679 75.8693C314.562 76.1651 313.677 76.4254 313.036 76.5369C312.389 76.7052 312.037 76.7866 312.043 76.73C312.043 76.73 312.4 76.5919 312.989 76.4183C313.641 76.1934 314.526 75.9331 315.643 75.6374C317.883 74.9893 320.951 74.0755 324.313 73.075C327.676 72.0745 330.744 71.1607 332.989 70.456C334.049 70.1549 334.939 69.8379 335.643 69.675C336.233 69.5015 336.584 69.42 336.584 69.42Z" fill="#E8505B"/>
<path d="M217.409 231.821C228.68 231.821 237.818 230.139 237.818 228.063C237.818 225.987 228.68 224.305 217.409 224.305C206.137 224.305 197 225.987 197 228.063C197 230.139 206.137 231.821 217.409 231.821Z" fill="#D8D8D8"/>
<path d="M207.093 202.476H228.769L226.532 206.309C226.532 206.309 223.176 207.379 222.977 207.379C222.778 207.379 212.214 208.598 210.399 207.578C208.559 206.582 207.093 202.476 207.093 202.476Z" fill="#371443"/>
<path d="M202.817 178.731C202.817 178.731 201.897 179.03 201.698 177.81C201.499 176.591 201.027 174.5 202.767 172.285C204.507 170.07 208.857 166.735 210.771 167.581C210.771 167.581 212.263 166.361 213.928 167.456C213.928 167.456 214.873 166.511 216.489 167.382C216.489 167.382 217.757 166.784 219.099 167.656C219.099 167.656 220.242 166.984 221.784 168.128C221.784 168.128 223.325 167.855 224.543 169.149C224.543 169.149 225.96 169.149 227.103 171.439C228.247 173.729 227.576 174.401 227.576 174.401C227.576 174.401 229.266 175.197 228.371 177.014C228.371 177.014 230.26 178.034 228.918 179.777C228.918 179.777 231.006 181.121 229.664 182.614C229.664 182.614 231.827 184.232 230.136 185.775C230.136 185.775 232.498 187.119 230.807 188.139L230.882 188.687C230.882 188.687 233.069 189.533 231.429 191.176L231.603 191.549C231.603 191.549 233.765 192.147 232.05 193.814L232.175 194.412C232.175 194.412 232.97 194.685 233.194 195.208C233.393 195.756 233.194 206.184 220.292 206.11C207.391 206.035 205.974 200.385 205.974 200.385L203.91 184.605C203.91 184.605 201.822 183.933 203.637 181.569C203.612 181.569 201.4 181.295 202.817 178.731Z" fill="#BDCCD4"/>
<path d="M233.219 195.631C233.119 196.726 232.1 197.125 231.205 197.125C230.186 197.125 219.024 197.797 218.03 197.125C217.011 196.453 214.401 180.971 213.804 178.806C213.208 176.641 211.443 169.522 210.448 168.427C209.877 167.83 208.833 167.905 208.012 168.079C206.098 169.025 203.935 170.891 202.817 172.31C201.077 174.525 201.549 176.616 201.748 177.835C201.947 179.055 202.866 178.756 202.866 178.756C201.45 181.32 203.662 181.594 203.662 181.594C201.847 183.958 203.935 184.63 203.935 184.63L205.999 200.41C205.999 200.41 207.416 206.06 220.317 206.135C231.901 206.159 233.219 197.722 233.219 195.631Z" fill="#A7BBC4"/>
<path d="M206.247 175.919C206.794 176.467 210.896 174.027 212.089 173.554C212.163 173.53 212.288 173.505 212.412 173.48L211.89 171.364C210.498 171.688 206.62 174.052 206.297 174.251C205.974 174.426 205.7 175.371 206.247 175.919Z" fill="#2B2B2B"/>
<path d="M206.943 178.931C207.49 179.478 211.592 177.114 212.81 176.641C212.909 176.616 213.034 176.566 213.183 176.541L212.661 174.426C211.293 174.7 207.341 177.039 207.018 177.238C206.67 177.437 206.396 178.383 206.943 178.931Z" fill="#2B2B2B"/>
<path d="M207.714 180.25C207.366 180.449 207.117 181.395 207.639 181.943C208.186 182.49 212.312 180.2 213.531 179.752C213.63 179.702 213.779 179.678 213.953 179.653L213.431 177.537H213.406C212.064 177.786 208.062 180.051 207.714 180.25Z" fill="#2B2B2B"/>
<path d="M208.41 183.262C208.062 183.461 207.813 184.407 208.335 184.954C208.882 185.502 213.034 183.312 214.252 182.839C214.376 182.789 214.525 182.764 214.699 182.714L214.177 180.599C214.152 180.599 214.127 180.599 214.103 180.599C212.785 180.872 208.758 183.063 208.41 183.262Z" fill="#2B2B2B"/>
<path d="M209.106 186.297C208.758 186.496 208.509 187.441 209.031 187.989C209.578 188.537 213.754 186.421 214.947 185.948C215.072 185.898 215.246 185.873 215.445 185.824L214.923 183.708C214.873 183.708 214.848 183.733 214.823 183.733C213.506 183.982 209.454 186.097 209.106 186.297Z" fill="#2B2B2B"/>
<path d="M209.827 189.309C209.479 189.508 209.23 190.454 209.752 191.001C210.299 191.549 214.5 189.508 215.694 189.035C215.818 188.985 216.017 188.935 216.24 188.911L215.718 186.795C215.669 186.795 215.619 186.82 215.569 186.82C214.227 187.069 210.15 189.11 209.827 189.309Z" fill="#2B2B2B"/>
<path d="M210.523 192.347C210.175 192.546 209.926 193.492 210.448 194.039C210.995 194.587 215.196 192.621 216.414 192.148C216.539 192.098 216.737 192.048 217.011 191.998L216.489 189.883C216.414 189.883 216.34 189.908 216.29 189.908C214.948 190.182 210.846 192.148 210.523 192.347Z" fill="#2B2B2B"/>
<path d="M217.011 193.017C215.669 193.291 211.567 195.182 211.219 195.382C210.871 195.581 210.622 196.526 211.144 197.074C211.691 197.622 215.917 195.73 217.135 195.257C217.285 195.207 217.483 195.158 217.757 195.108L217.235 192.992C217.16 192.992 217.061 192.992 217.011 193.017Z" fill="#2B2B2B"/>
<path d="M220.168 173.48C220.292 173.356 220.093 171.987 219.77 171.663C219.422 171.315 213.307 171.066 211.965 171.315C211.94 171.315 211.915 171.315 211.915 171.315L212.437 173.43C214.227 173.156 220.044 173.604 220.168 173.48Z" fill="#333333"/>
<path d="M220.864 176.491C220.988 176.367 220.789 174.998 220.466 174.675C220.118 174.326 214.028 174.152 212.685 174.426C212.685 174.426 212.686 174.426 212.661 174.426L213.183 176.541C215.022 176.243 220.74 176.616 220.864 176.491Z" fill="#333333"/>
<path d="M221.56 179.504C221.685 179.38 221.486 178.011 221.163 177.687C220.839 177.364 214.824 177.239 213.432 177.488L213.954 179.604C215.818 179.33 221.436 179.629 221.56 179.504Z" fill="#333333"/>
<path d="M221.337 182.539C221.461 182.415 222.207 181.046 221.883 180.722C221.56 180.399 215.669 180.349 214.202 180.598L214.724 182.713C216.489 182.415 221.212 182.639 221.337 182.539Z" fill="#333333"/>
<path d="M222.977 185.552C223.101 185.427 222.38 184.058 222.032 183.735C221.709 183.411 216.464 183.436 214.948 183.685L215.47 185.801C217.434 185.502 222.853 185.676 222.977 185.552Z" fill="#333333"/>
<path d="M223.673 188.563C223.797 188.438 223.598 187.069 223.275 186.746C222.952 186.422 217.309 186.522 215.718 186.771L216.24 188.886C218.229 188.588 223.549 188.687 223.673 188.563Z" fill="#333333"/>
<path d="M224.369 191.6C224.493 191.475 224.294 190.107 223.971 189.783C223.648 189.459 218.129 189.634 216.489 189.883L217.011 191.998C219.024 191.675 224.245 191.724 224.369 191.6Z" fill="#333333"/>
<path d="M224.668 192.819C224.344 192.496 218.95 192.72 217.235 192.968L217.757 195.084C219.795 194.761 224.941 194.736 225.065 194.636C225.214 194.487 225.016 193.143 224.668 192.819Z" fill="#333333"/>
<path d="M219.771 171.663C219.422 171.315 213.307 171.066 211.965 171.315C210.623 171.588 206.645 174.003 206.322 174.202C205.974 174.401 205.725 175.347 206.247 175.894C206.297 175.944 206.422 175.969 206.546 175.969C206.397 175.745 206.098 175.197 206.422 174.5C206.422 174.5 210.995 171.887 212.139 171.613C213.282 171.34 219.074 171.738 219.398 171.962C219.621 172.086 219.746 172.957 219.82 173.505C220.019 173.505 220.143 173.505 220.168 173.48C220.293 173.356 220.094 172.012 219.771 171.663Z" fill="#7F9BA5"/>
<path d="M220.864 176.491C220.988 176.367 220.789 174.998 220.466 174.675C220.118 174.326 214.028 174.152 212.686 174.426C211.343 174.699 207.366 177.039 207.018 177.238C206.67 177.437 206.421 178.383 206.943 178.931C207.018 179.005 207.142 179.03 207.316 179.005C207.142 178.781 206.844 178.284 207.092 177.636C207.092 177.636 211.99 174.874 213.083 174.749C214.152 174.625 219.671 174.749 220.069 174.948C220.342 175.098 220.466 175.994 220.516 176.541C220.715 176.516 220.839 176.516 220.864 176.491Z" fill="#7F9BA5"/>
<path d="M221.56 179.503C221.685 179.379 221.486 178.01 221.163 177.686C220.815 177.338 214.749 177.238 213.407 177.512C212.064 177.786 208.062 180.051 207.714 180.25C207.366 180.449 207.118 181.395 207.64 181.942C207.714 182.017 207.863 182.042 208.062 182.017C207.913 181.793 207.615 181.245 207.814 180.598C207.814 180.598 212.388 178.035 213.606 177.835C214.824 177.636 220.541 177.761 220.79 177.96C220.989 178.109 221.063 179.005 221.113 179.528C221.386 179.553 221.535 179.528 221.56 179.503Z" fill="#7F9BA5"/>
<path d="M221.858 180.722C221.51 180.374 215.47 180.349 214.127 180.622C212.785 180.896 208.758 183.086 208.41 183.286C208.062 183.485 207.813 184.43 208.335 184.978C208.41 185.053 208.534 185.078 208.708 185.053C208.584 184.854 208.261 184.231 208.485 183.559C208.485 183.559 213.058 181.07 214.326 180.946C215.594 180.822 221.113 180.896 221.461 181.07C221.585 181.145 221.187 181.742 220.964 182.564C221.162 182.564 221.312 182.539 221.312 182.539C221.461 182.39 222.206 181.046 221.858 180.722Z" fill="#7F9BA5"/>
<path d="M222.032 183.734C221.684 183.386 216.19 183.435 214.848 183.709C213.506 183.983 209.454 186.099 209.131 186.298C208.807 186.497 208.534 187.443 209.056 187.99C209.131 188.065 209.255 188.09 209.404 188.065C209.255 187.816 209.006 187.293 209.305 186.646C209.305 186.646 213.879 184.282 215.097 184.033C216.315 183.759 221.411 183.759 221.759 184.033C221.982 184.207 222.604 185.078 222.629 185.601C222.852 185.601 222.977 185.576 223.002 185.576C223.101 185.427 222.355 184.058 222.032 183.734Z" fill="#7F9BA5"/>
<path d="M223.275 186.745C222.927 186.397 216.912 186.521 215.569 186.795C214.227 187.069 210.15 189.11 209.827 189.309C209.479 189.508 209.23 190.454 209.752 191.001C209.827 191.076 209.926 191.101 210.1 191.101C209.976 190.802 209.653 190.23 210.051 189.632C210.051 189.632 214.55 187.268 216.091 187.069C217.633 186.87 222.604 186.87 222.878 187.069C223.101 187.243 223.226 188.263 223.275 188.637C223.499 188.637 223.648 188.612 223.673 188.587C223.797 188.438 223.599 187.094 223.275 186.745Z" fill="#7F9BA5"/>
<path d="M223.971 189.783C223.623 189.434 217.632 189.633 216.29 189.907C214.948 190.181 210.871 192.147 210.523 192.346C210.175 192.545 209.926 193.491 210.448 194.039C210.498 194.089 210.622 194.138 210.746 194.138C210.647 193.914 210.299 193.466 210.647 192.67C210.647 192.67 215.619 190.455 216.688 190.256C217.757 190.056 223.201 189.982 223.549 190.131C223.822 190.231 223.946 191.251 223.996 191.699C224.22 191.699 224.344 191.674 224.344 191.649C224.518 191.475 224.294 190.106 223.971 189.783Z" fill="#7F9BA5"/>
<path d="M224.667 192.819C224.319 192.471 218.353 192.745 217.011 193.018C215.669 193.292 211.567 195.184 211.219 195.383C210.871 195.582 210.622 196.528 211.144 197.075C211.194 197.125 211.294 197.15 211.418 197.175C211.343 196.851 211.045 196.379 211.393 195.707C211.393 195.707 216.564 193.342 217.508 193.292C218.453 193.218 224.17 192.944 224.369 193.093C224.518 193.193 224.618 194.188 224.667 194.736C224.891 194.711 225.04 194.711 225.065 194.686C225.214 194.487 225.016 193.143 224.667 192.819Z" fill="#7F9BA5"/>
<path d="M210.747 167.631C210.747 167.631 211.89 168.228 212.561 169.05C213.232 169.846 214.252 169.796 214.45 169.323C214.649 168.85 213.158 166.884 211.318 167.282C210.995 167.432 210.747 167.631 210.747 167.631Z" fill="#333333"/>
<path d="M211.318 167.283C210.995 167.433 210.747 167.632 210.747 167.632C210.747 167.632 210.771 167.657 210.846 167.681C210.945 167.632 211.343 167.433 211.691 167.433C212.089 167.433 212.909 167.706 213.58 168.304C214.252 168.901 214.227 169.424 214.003 169.648C214.227 169.598 214.376 169.498 214.45 169.324C214.649 168.851 213.158 166.86 211.318 167.283Z" fill="#7F9BA5"/>
<path d="M213.978 167.505C213.978 167.505 215.246 168.575 215.668 169.123C216.066 169.67 216.414 169.869 216.812 169.67C217.21 169.471 217.359 168.998 217.011 168.451C216.663 167.903 215.494 167.057 214.326 167.231C214.127 167.331 214.003 167.43 213.953 167.455L213.978 167.505Z" fill="#333333"/>
<path d="M217.682 168.651C218.03 169.323 218.428 169.995 219.174 169.87C219.919 169.746 219.522 168.924 219.248 168.526C218.975 168.128 217.906 167.381 217.135 167.257C216.862 167.307 216.663 167.381 216.563 167.406C216.663 167.456 217.359 168.028 217.682 168.651Z" fill="#333333"/>
<path d="M221.51 170.045C222.256 170.045 222.306 169.497 221.635 168.701C220.964 167.905 219.721 167.481 219.721 167.481C219.422 167.531 219.224 167.606 219.149 167.631V167.681C219.149 167.681 219.944 168.353 220.218 168.751C220.491 169.174 220.765 170.045 221.51 170.045Z" fill="#333333"/>
<path d="M222.977 169.447C223.176 169.846 223.449 170.468 223.922 170.393C224.394 170.319 224.468 169.721 224.12 169.174C223.797 168.626 222.554 168.128 222.53 168.128C222.181 168.079 221.908 168.103 221.833 168.128V168.178C221.833 168.178 222.778 169.049 222.977 169.447Z" fill="#333333"/>
<path d="M217.011 168.427C216.663 167.88 215.494 167.034 214.326 167.208C214.127 167.307 214.003 167.407 213.953 167.432V167.482C213.953 167.482 213.978 167.506 214.028 167.556C214.127 167.506 214.351 167.382 214.649 167.382C215.047 167.382 216.19 167.979 216.588 168.452C216.986 168.925 216.613 169.522 216.364 169.697C216.489 169.722 216.613 169.697 216.737 169.622C217.21 169.448 217.334 168.975 217.011 168.427Z" fill="#7F9BA5"/>
<path d="M219.223 168.501C218.95 168.103 217.881 167.356 217.11 167.231C216.837 167.281 216.638 167.356 216.539 167.381C216.563 167.406 216.613 167.431 216.663 167.48C216.737 167.455 217.11 167.406 217.284 167.455C217.483 167.53 218.552 168.127 218.9 168.6C219.223 169.073 219.298 169.72 218.9 169.87C218.975 169.87 219.049 169.87 219.124 169.845C219.894 169.72 219.497 168.899 219.223 168.501Z" fill="#7F9BA5"/>
<path d="M221.635 168.701C220.964 167.905 219.721 167.481 219.721 167.481C219.422 167.531 219.224 167.606 219.149 167.631V167.681C219.149 167.681 219.174 167.705 219.224 167.755C219.224 167.755 219.572 167.656 219.77 167.705C219.969 167.755 220.988 168.303 221.461 168.925C221.908 169.522 221.734 169.921 221.386 170.02C221.411 170.02 221.461 170.02 221.51 170.02C222.256 170.045 222.306 169.522 221.635 168.701Z" fill="#7F9BA5"/>
<path d="M224.12 169.174C223.797 168.626 222.554 168.128 222.53 168.128C222.181 168.079 221.908 168.103 221.833 168.128V168.178C221.833 168.178 221.858 168.203 221.933 168.278C222.057 168.278 222.306 168.253 222.53 168.352C222.878 168.477 223.549 168.9 223.872 169.497C224.145 169.995 223.946 170.294 223.748 170.393C223.797 170.393 223.847 170.418 223.922 170.393C224.394 170.319 224.468 169.721 224.12 169.174Z" fill="#7F9BA5"/>
<path d="M222.48 173.58C224.493 173.58 227.6 174.376 227.6 174.376C227.6 174.376 227.899 174.077 227.775 173.231C227.004 171.962 222.579 171.688 222.231 171.812C221.883 171.962 222.48 173.58 222.48 173.58Z" fill="#333333"/>
<path d="M228.396 177.015C228.545 176.691 228.62 176.392 228.645 176.144C227.551 174.8 223.151 174.6 222.952 174.725C222.753 174.849 223.3 176.467 223.3 176.467C225.836 176.417 228.396 177.015 228.396 177.015Z" fill="#333333"/>
<path d="M228.943 179.777C229.241 179.379 229.391 179.031 229.415 178.732C228.893 177.737 223.971 177.164 223.623 177.562C223.275 177.961 223.971 179.379 223.971 179.379C225.513 179.305 228.943 179.777 228.943 179.777Z" fill="#333333"/>
<path d="M225.438 182.416C225.637 182.49 229.664 182.615 229.664 182.615C230.037 182.192 230.161 181.769 230.111 181.395C228.869 180.599 224.618 180.375 224.369 180.649C224.096 180.922 225.239 182.341 225.438 182.416Z" fill="#333333"/>
<path d="M230.783 184.557C230.087 183.685 226.234 183.536 225.985 183.685C225.712 183.81 225.189 185.229 225.388 185.378C225.587 185.502 230.161 185.776 230.161 185.776C230.584 185.378 230.783 184.955 230.783 184.557Z" fill="#333333"/>
<path d="M230.832 188.14C231.155 187.941 231.329 187.742 231.404 187.518C230.633 186.746 226.059 186.522 225.711 186.647C225.363 186.771 225.885 188.389 226.059 188.463C226.184 188.538 230.907 188.663 230.907 188.663L230.832 188.14Z" fill="#333333"/>
<path d="M231.578 191.501L231.429 191.177C231.702 190.903 231.876 190.654 231.951 190.405C231.802 189.509 226.78 189.285 226.582 189.684C226.383 190.082 226.979 191.301 226.979 191.301C228.396 191.227 231.553 191.501 231.578 191.501Z" fill="#333333"/>
<path d="M232.025 193.791C232.299 193.542 232.473 193.293 232.572 193.094C232.523 192.198 227.327 192.447 227.128 192.521C226.929 192.596 227.203 194.264 227.402 194.463C227.601 194.662 232.175 194.388 232.175 194.388L232.025 193.791Z" fill="#333333"/>
<path d="M222.206 171.838C222.132 171.863 222.107 171.962 222.107 172.087C222.803 172.161 225.91 172.584 226.283 172.883C226.532 173.082 226.78 173.754 226.905 174.227C227.327 174.327 227.576 174.401 227.576 174.401C227.576 174.401 227.874 174.103 227.75 173.256C226.979 171.987 222.554 171.713 222.206 171.838Z" fill="#7F9BA5"/>
<path d="M222.952 174.725C222.903 174.75 222.903 174.899 222.927 175.073C223.524 175.098 226.631 175.297 227.004 175.596C227.253 175.795 227.427 176.392 227.501 176.84C228.073 176.94 228.396 177.015 228.396 177.015C228.545 176.691 228.62 176.392 228.645 176.144C227.551 174.8 223.151 174.6 222.952 174.725Z" fill="#7F9BA5"/>
<path d="M229.415 178.732C228.893 177.737 223.971 177.164 223.623 177.562C223.549 177.637 223.524 177.761 223.524 177.886C224.27 177.861 227.178 177.811 227.65 178.234C227.974 178.508 228.172 179.18 228.272 179.703C228.67 179.753 228.918 179.777 228.918 179.777C229.241 179.404 229.391 179.031 229.415 178.732Z" fill="#7F9BA5"/>
<path d="M224.369 180.649C224.32 180.698 224.32 180.798 224.344 180.922C224.991 180.922 228.048 180.947 228.521 181.271C228.819 181.445 228.968 182.067 229.043 182.59C229.416 182.615 229.664 182.615 229.664 182.615C230.037 182.192 230.161 181.769 230.112 181.395C228.894 180.599 224.643 180.4 224.369 180.649Z" fill="#7F9BA5"/>
<path d="M225.985 183.685C225.935 183.71 225.86 183.784 225.811 183.884C226.581 183.909 229.117 184.033 229.291 184.207C229.415 184.332 229.564 185.203 229.639 185.726C229.962 185.75 230.161 185.75 230.161 185.75C230.608 185.352 230.782 184.929 230.807 184.531C230.086 183.685 226.258 183.56 225.985 183.685Z" fill="#7F9BA5"/>
<path d="M225.711 186.647C225.612 186.696 225.587 186.846 225.612 187.045C226.383 187.045 229.54 187.07 229.888 187.319C230.111 187.468 230.36 188.14 230.509 188.663C230.758 188.663 230.882 188.663 230.882 188.663L230.807 188.115C231.131 187.916 231.305 187.717 231.379 187.493C230.609 186.746 226.059 186.522 225.711 186.647Z" fill="#7F9BA5"/>
<path d="M226.581 189.684C226.557 189.758 226.532 189.858 226.532 189.957C227.178 189.957 230.882 189.908 231.006 190.157C231.131 190.43 231.404 191.177 231.404 191.177C231.677 190.903 231.851 190.654 231.926 190.405C231.827 189.509 226.78 189.285 226.581 189.684Z" fill="#7F9BA5"/>
<path d="M227.128 192.522C227.079 192.547 227.054 192.671 227.054 192.845C227.799 192.845 231.404 192.796 231.702 192.97C232.05 193.169 232.05 193.766 232.05 193.766C232.324 193.517 232.498 193.269 232.597 193.069C232.523 192.173 227.327 192.447 227.128 192.522Z" fill="#7F9BA5"/>
<path d="M224.469 182.964C224.618 183.313 224.519 183.711 224.245 183.835C223.972 183.96 223.624 183.761 223.475 183.412C223.325 183.064 223.425 182.666 223.698 182.541C223.972 182.392 224.32 182.591 224.469 182.964Z" fill="#7F9BA5"/>
<path d="M223.499 182.69C223.375 182.864 223.375 183.138 223.474 183.386C223.598 183.685 223.872 183.859 224.12 183.859C224.245 183.685 224.245 183.411 224.145 183.162C223.996 182.864 223.748 182.665 223.499 182.69Z" fill="#333333"/>
<path d="M212.909 204.939C212.909 204.939 213.506 205.288 214.401 205.138C215.271 205.014 217.881 204.342 219.372 201.579C220.739 199.065 220.988 197.074 220.118 196.676C219.248 196.278 218.701 196.601 218.701 197.622C218.701 198.642 218.353 201.729 216.141 203.073C213.903 204.392 212.288 204.516 212.909 204.939Z" fill="#2B2B2B"/>
<path d="M217.334 205.337C217.98 205.238 221.063 204.317 222.654 201.654C224.145 199.165 224.294 196.975 223.573 196.601C222.828 196.228 222.156 196.477 222.132 197.398C222.107 198.319 221.808 201.28 219.869 202.824C217.408 204.765 215.594 204.815 216.041 205.188C216.041 205.238 216.663 205.437 217.334 205.337Z" fill="#2B2B2B"/>
<path d="M220.292 205.388C220.739 205.313 223.747 204.317 225.413 201.729C227.004 199.265 227.103 196.875 226.481 196.552C225.885 196.203 225.065 196.378 224.99 197.224C224.915 198.07 224.816 201.032 223.001 202.6C221.187 204.168 218.8 204.964 219.123 205.288C219.173 205.412 219.844 205.462 220.292 205.388Z" fill="#2B2B2B"/>
<path d="M222.902 205.362C223.126 205.337 226.408 204.292 228.148 201.778C229.863 199.339 229.863 196.75 229.391 196.452C228.918 196.153 227.974 196.228 227.874 196.999C227.775 197.746 227.8 200.658 226.184 202.35C224.568 204.043 221.784 204.989 221.933 205.312C222.008 205.511 222.704 205.412 222.902 205.362Z" fill="#2B2B2B"/>
<path d="M225.413 205.063C225.413 205.063 228.57 204.267 230.384 201.828C232.199 199.413 232.124 196.651 231.801 196.377C231.453 196.103 230.384 196.103 230.26 196.775C230.136 197.447 230.26 200.284 228.843 202.101C227.426 203.918 224.543 204.789 224.617 205.063C224.667 205.337 225.413 205.063 225.413 205.063Z" fill="#2B2B2B"/>
<path d="M220.093 196.651C219.422 196.353 218.949 196.477 218.775 197C219.248 196.776 219.994 196.701 220.143 197.149C220.342 197.747 220.068 199.563 218.8 201.729C217.533 203.894 215.096 204.765 214.351 204.815C213.829 204.865 213.307 204.641 213.058 204.516C212.76 204.666 212.685 204.765 212.909 204.915C212.909 204.915 213.505 205.263 214.4 205.114C215.27 204.989 217.881 204.317 219.372 201.555C220.739 199.041 220.963 197.05 220.093 196.651Z" fill="#7F9BA5"/>
<path d="M223.549 196.601C222.977 196.302 222.455 196.402 222.206 196.875C222.505 196.775 223.027 196.676 223.35 197.024C223.822 197.497 223.151 200.334 221.61 202.4C220.068 204.491 217.011 205.213 216.215 204.839C215.942 204.964 215.867 205.038 216.016 205.163C216.041 205.238 216.663 205.412 217.334 205.312C217.98 205.213 221.063 204.292 222.654 201.629C224.12 199.14 224.294 196.949 223.549 196.601Z" fill="#7F9BA5"/>
<path d="M225.388 201.704C226.979 199.24 227.078 196.851 226.457 196.527C225.91 196.228 225.189 196.328 225.015 197C225.015 197 225.91 196.602 226.308 196.95C226.706 197.299 225.835 200.459 225.09 201.455C224.344 202.476 221.262 205.512 219.347 204.915C219.124 205.064 219.049 205.188 219.124 205.263C219.149 205.388 219.82 205.437 220.267 205.363C220.715 205.313 223.722 204.317 225.388 201.704Z" fill="#7F9BA5"/>
<path d="M228.147 201.778C229.862 199.339 229.862 196.75 229.39 196.452C228.943 196.178 228.122 196.228 227.923 196.825C227.948 196.825 228.943 196.601 229.142 196.925C229.34 197.273 228.744 200.633 227.252 202.176C225.761 203.719 223.548 204.839 222.554 204.79C222.131 205.014 221.883 205.188 221.933 205.287C222.007 205.486 222.678 205.362 222.902 205.337C223.126 205.337 226.407 204.292 228.147 201.778Z" fill="#7F9BA5"/>
<path d="M230.385 201.827C232.199 199.413 232.125 196.65 231.802 196.376C231.478 196.127 230.534 196.102 230.285 196.65C230.608 196.6 231.205 196.575 231.354 196.824C231.553 197.173 231.006 199.985 230.136 201.329C229.266 202.673 226.681 204.391 225.413 204.54C224.891 204.789 224.568 204.963 224.593 205.063C224.667 205.336 225.388 205.063 225.388 205.063C225.388 205.063 228.57 204.266 230.385 201.827Z" fill="#7F9BA5"/>
<path d="M204.234 175.969C203.886 175.695 201.649 177.437 201.649 177.437C201.674 177.562 201.699 177.686 201.724 177.81C201.922 179.03 202.842 178.731 202.842 178.731C202.842 178.731 204.458 177.661 204.582 177.387C204.707 177.114 204.557 176.242 204.234 175.969Z" fill="#2B2B2B"/>
<path d="M204.631 178.806C204.184 178.905 203.065 179.702 202.344 180.224C202.344 181.419 203.612 181.568 203.612 181.568C203.612 181.568 205.104 180.548 205.153 180.224C205.203 179.901 205.302 178.681 204.631 178.806Z" fill="#2B2B2B"/>
<path d="M204.383 176.193C204.333 176.118 204.283 176.044 204.209 175.994C203.861 175.72 201.624 177.463 201.624 177.463C201.648 177.587 201.673 177.711 201.698 177.836C201.897 179.055 202.817 178.757 202.817 178.757C202.817 178.757 202.916 178.707 203.04 178.607C202.916 178.11 202.767 177.338 202.817 177.139C202.866 176.915 203.886 176.417 204.383 176.193Z" fill="#7F9BA5"/>
<path d="M205.054 178.981C204.954 178.856 204.83 178.782 204.631 178.807C204.184 178.906 203.065 179.703 202.344 180.225C202.344 181.42 203.612 181.569 203.612 181.569C203.612 181.569 203.662 181.544 203.761 181.47C203.612 181.096 203.314 180.225 203.413 180.026C203.537 179.802 204.606 179.205 205.054 178.981Z" fill="#7F9BA5"/>
<path d="M208.136 196.651C207.689 196.676 206.446 197.298 205.65 197.696C205.476 198.866 206.694 199.214 206.694 199.214C206.694 199.214 208.31 198.443 208.434 198.119C208.559 197.821 208.807 196.626 208.136 196.651Z" fill="#2B2B2B"/>
<path d="M208.509 196.901C208.434 196.751 208.335 196.652 208.136 196.677C207.689 196.702 206.446 197.324 205.65 197.722C205.476 198.892 206.694 199.24 206.694 199.24C206.694 199.24 206.744 199.215 206.844 199.166C206.769 198.792 206.595 197.871 206.744 197.672C206.893 197.473 208.037 197.05 208.509 196.901Z" fill="#7F9BA5"/>
<path d="M207.564 193.664C207.142 193.689 205.874 194.336 205.103 194.784C204.929 195.954 206.148 196.328 206.148 196.328C206.148 196.328 207.788 195.481 207.912 195.183C208.037 194.834 208.186 193.64 207.564 193.664Z" fill="#2B2B2B"/>
<path d="M207.938 193.889C207.864 193.74 207.764 193.665 207.59 193.665C207.168 193.69 205.9 194.337 205.129 194.785C204.955 195.955 206.173 196.328 206.173 196.328C206.173 196.328 206.273 196.278 206.397 196.204C206.323 195.83 206.124 194.909 206.248 194.71C206.347 194.486 207.441 194.063 207.938 193.889Z" fill="#7F9BA5"/>
<path d="M207.018 190.653C206.62 190.653 205.327 191.374 204.582 191.823C204.383 193.017 205.601 193.366 205.601 193.366C205.601 193.366 207.266 192.445 207.391 192.146C207.515 191.847 207.589 190.628 207.018 190.653Z" fill="#2B2B2B"/>
<path d="M207.341 190.876C207.266 190.752 207.167 190.652 207.018 190.652C206.62 190.652 205.327 191.374 204.582 191.822C204.383 193.017 205.601 193.365 205.601 193.365C205.601 193.365 205.725 193.291 205.899 193.191C205.824 192.818 205.601 191.872 205.7 191.673C205.8 191.499 206.868 191.051 207.341 190.876Z" fill="#7F9BA5"/>
<path d="M206.446 187.642C206.098 187.642 204.78 188.413 204.01 188.886C203.811 190.081 205.029 190.454 205.029 190.454C205.029 190.454 206.719 189.459 206.844 189.16C206.968 188.886 206.968 187.642 206.446 187.642Z" fill="#2B2B2B"/>
<path d="M206.744 187.866C206.67 187.742 206.57 187.642 206.446 187.667C206.098 187.667 204.78 188.438 204.01 188.911C203.811 190.106 205.029 190.479 205.029 190.479C205.029 190.479 205.178 190.38 205.402 190.255C205.302 189.882 205.079 188.936 205.178 188.737C205.253 188.488 206.272 188.065 206.744 187.866Z" fill="#7F9BA5"/>
<path d="M205.874 184.629C205.551 184.629 204.209 185.45 203.463 185.923C203.264 187.143 204.457 187.516 204.457 187.516C204.457 187.516 206.172 186.446 206.322 186.172C206.446 185.898 206.321 184.629 205.874 184.629Z" fill="#2B2B2B"/>
<path d="M206.148 184.853C206.073 184.729 205.973 184.654 205.874 184.654C205.551 184.654 204.209 185.476 203.463 185.949C203.264 187.168 204.457 187.541 204.457 187.541C204.457 187.541 204.631 187.417 204.88 187.268C204.78 186.894 204.557 185.949 204.606 185.725C204.706 185.501 205.675 185.053 206.148 184.853Z" fill="#7F9BA5"/>
<path d="M205.775 183.187C205.899 182.913 205.7 181.644 205.303 181.644C205.004 181.644 203.662 182.515 202.916 182.988C202.692 184.207 203.91 184.605 203.91 184.605C203.91 184.605 205.651 183.46 205.775 183.187Z" fill="#2B2B2B"/>
<path d="M205.551 181.817C205.477 181.693 205.402 181.618 205.303 181.618C205.004 181.618 203.662 182.489 202.916 182.962C202.692 184.182 203.91 184.58 203.91 184.58C203.91 184.58 204.134 184.431 204.408 184.256C204.308 183.908 204.06 182.937 204.109 182.713C204.134 182.514 205.079 182.041 205.551 181.817Z" fill="#7F9BA5"/>
<path d="M216.837 170.768C216.837 170.768 225.91 171.988 226.382 171.913C226.904 171.838 225.438 169.698 225.164 169.897C224.891 170.096 225.289 170.768 224.692 170.917C224.095 171.042 216.489 170.295 216.837 170.768Z" fill="#CADDE5"/>
<path d="M220.814 195.407C220.814 195.407 231.976 194.536 232.324 195.009C232.672 195.482 232.448 195.681 232.199 195.756C231.901 195.805 218.527 196.079 220.814 195.407Z" fill="#CADDE5"/>
<path d="M223.35 183.41C223.35 183.41 223.698 184.157 224.294 184.008C224.891 183.883 224.568 182.738 224.568 182.738C224.568 182.738 225.239 184.281 224.294 184.356C223.424 184.431 223.35 183.41 223.35 183.41Z" fill="#CADDE5"/>
<path d="M234.263 222.66C233.915 222.088 228.819 220.644 220.69 220.445C220.765 217.01 219.969 207.677 219.969 207.677L215.644 207.876C215.644 207.876 214.848 217.234 214.848 220.545C210.672 220.769 200.853 221.515 200.431 223.83C199.884 226.792 200.232 227.663 200.232 227.663C200.232 227.663 205.203 231.098 218.453 230.276C231.703 229.48 234.313 227.663 234.536 227.115C234.735 226.568 234.661 223.332 234.263 222.66Z" fill="#FF3C6A"/>
<path d="M215.147 226.64C203.24 226.64 200.953 224.077 200.953 224.077C203.787 227.437 214.873 227.113 214.873 227.113L215.147 230.274V230.399C216.166 230.399 217.26 230.349 218.428 230.274C231.678 229.478 234.288 227.661 234.512 227.113C234.71 226.566 234.636 223.355 234.238 222.658C235.257 224.624 227.054 226.64 215.147 226.64Z" fill="#4B0012"/>
<path d="M222.156 222.809C222.156 222.336 220.665 222.062 220.665 222.062V220.395C220.715 217.035 219.994 208.323 219.944 207.701L218.303 207.801V223.133C216.762 223.406 214.873 222.859 214.798 222.66C214.724 222.461 214.798 221.166 214.798 221.166L214.599 222.236C212.785 222.834 213.381 223.456 215.47 223.979C217.582 224.551 222.156 223.879 222.156 222.809Z" fill="#4B0012"/>
<path d="M217.235 223.306C215.519 223.306 214.6 222.709 214.55 222.684C214.5 222.659 214.5 222.584 214.525 222.534C214.55 222.485 214.625 222.485 214.674 222.51C214.674 222.51 215.594 223.107 217.26 223.107C218.95 223.107 220.615 222.51 220.64 222.51C220.69 222.485 220.74 222.51 220.765 222.559C220.789 222.609 220.765 222.659 220.715 222.684C220.69 222.709 218.975 223.306 217.235 223.306C217.26 223.306 217.26 223.306 217.235 223.306Z" fill="#371443"/>
<path d="M206.222 227.612C206.222 227.388 206.222 227.115 206.421 227.04C206.521 226.99 206.62 227.015 206.719 227.015C207.266 227.09 207.813 227.164 208.385 227.239C208.161 228.06 208.062 228.907 208.087 229.753C207.714 229.678 207.366 229.579 206.993 229.504C206.769 229.454 206.222 229.429 206.073 229.205C205.974 229.031 206.148 228.857 206.197 228.683C206.247 228.309 206.222 227.936 206.222 227.612Z" fill="#FF3C6A"/>
<path d="M216.961 210.538C216.961 210.538 217.235 221.165 216.837 221.315C216.439 221.439 216.166 221.862 215.967 221.315C215.768 220.767 216.091 209.791 216.514 209.592C216.911 209.393 216.961 209.866 216.961 210.538Z" fill="#FF3C6A"/>
<path d="M228.769 203.894C228.769 203.894 227.278 207.254 224.245 207.577C221.212 207.926 213.556 209.12 209.852 207.975C206.148 206.831 204.408 204.665 204.01 201.181C203.612 197.671 202.792 186.098 203.463 184.679C204.134 183.26 206.546 183.26 207.639 184.131C208.708 185.003 208.335 191.847 208.335 191.847C208.335 191.847 208.161 201.803 209.255 203.819C210.349 205.835 212.586 207.055 214.799 207.179C217.011 207.303 223.275 206.831 224.618 206.507C225.96 206.159 226.83 204.914 226.83 204.914C226.83 204.939 227.874 204.566 228.769 203.894Z" fill="#FF3C6A"/>
<path d="M226.83 204.963C226.83 204.963 225.96 206.207 224.618 206.556C223.275 206.904 217.011 207.352 214.799 207.228C212.586 207.103 210.349 205.884 209.255 203.868C208.162 201.852 208.336 191.896 208.336 191.896C208.336 191.896 208.708 185.051 207.639 184.18C207.192 183.832 206.546 183.608 205.875 183.583C206.098 183.633 207.316 184.056 207.391 185.45C207.465 186.993 207.267 200.458 208.261 203.494C209.28 206.531 211.517 208.348 216.613 208.398C219.621 208.223 222.629 207.775 224.27 207.601C227.303 207.253 228.794 203.918 228.794 203.918C227.874 204.565 226.83 204.938 226.83 204.963Z" fill="#83001F"/>
<path d="M204.159 187.317C204.159 187.317 204.607 188.611 205.477 187.989C206.347 187.391 206.223 185.425 205.601 185.151C205.004 184.878 204.06 185.699 204.06 186.495C204.06 186.495 203.936 185.276 204.855 184.878C205.8 184.479 206.272 185.077 206.471 186.296C206.67 187.516 206.123 188.785 205.402 188.71C204.656 188.661 204.259 188.113 204.159 187.317Z" fill="#83001F"/>
<path d="M204.333 186.321C204.333 186.222 204.333 186.147 204.383 186.048C204.433 185.923 204.507 185.848 204.607 185.749C204.731 185.624 204.88 185.525 205.054 185.55C205.154 185.575 205.253 185.674 205.303 185.774C205.353 185.873 205.353 185.998 205.353 186.097C205.353 186.147 205.353 186.197 205.328 186.222C205.303 186.272 205.228 186.321 205.179 186.346C204.98 186.446 204.831 186.645 204.756 186.844C204.731 186.919 204.706 187.018 204.632 187.018C204.358 187.118 204.333 186.471 204.333 186.321Z" fill="#FF3C6A"/>
<path d="M207.092 190.627C207.092 190.627 207.018 201.678 207.938 204.067C208.833 206.457 211.393 207.676 211.393 207.676C211.393 207.676 208.634 207.129 207.49 203.843C206.347 200.508 207.092 190.627 207.092 190.627Z" fill="#FF3C6A"/>
<path d="M369.501 18.8035C373.125 22.2842 366.876 38.0834 364.327 39.241C361.839 40.4063 312.119 33.6823 310.736 30.9788C309.362 28.2145 315.115 10.009 319.52 9.27131C323.925 8.53366 365.876 15.3228 369.501 18.8035Z" fill="#FFB30C"/>
<path d="M319.092 20.9324C319.176 20.758 319.275 20.4621 319.381 20.1056L319.473 19.8704L319.564 19.6353C319.648 19.4609 319.663 19.3395 319.671 19.2788C319.937 18.6341 320.317 18.0655 320.697 17.4968C321.069 16.9889 321.366 16.5947 321.654 16.2612C322.148 15.7686 322.679 15.4657 323.187 15.345C323.566 15.2696 323.884 15.1866 324.248 15.2326L324.43 15.2556L324.612 15.2786L324.976 15.3247L325.218 15.3553C325.279 15.363 325.339 15.3707 325.4 15.3784L325.521 15.3937L325.703 15.4167L325.877 15.5004C326.226 15.6679 326.506 15.8884 326.847 16.1165C327.24 16.413 327.497 16.8156 327.739 17.3396C327.837 17.537 327.92 17.8559 327.98 18.3568C328.04 18.8578 328.016 19.5331 327.916 20.3222C327.839 20.9292 327.717 21.4072 327.534 21.8774C327.458 21.9912 327.428 22.234 327.252 22.6435C327.229 22.8257 327.062 23.1745 326.826 23.5764C326.583 24.039 326.219 24.4862 325.733 24.9181L325.596 25.0242L325.528 25.0772L325.459 25.1303L324.981 25.5014L324.845 25.6075L324.708 25.7136C324.571 25.8196 324.443 25.865 324.374 25.918L324.04 26.1225L323.707 26.3269C323.115 26.622 322.599 26.8034 322.235 26.7574L321.25 26.7561C320.522 26.664 319.939 26.4052 319.637 25.8736L319.486 25.6077L319.335 25.3419C319.282 25.2735 319.236 25.1444 319.183 25.0761L319.078 24.9393L319.032 24.8102C318.828 24.476 318.715 23.9067 318.679 23.2236C318.634 22.6013 318.711 21.9943 318.909 21.4026C318.925 21.2812 318.932 21.2205 319.008 21.1068L319.092 20.9324ZM325.353 21.108L325.376 20.9258C325.391 20.8044 325.467 20.6907 325.482 20.5693L325.567 19.9016C325.674 19.0518 325.38 18.4594 324.804 18.1399C324.683 18.1246 324.569 18.0485 324.562 18.1092C324.44 18.0939 324.259 18.0709 324.069 18.1086L323.879 18.1463L323.69 18.1839C323.242 18.3123 322.901 18.5775 322.544 18.964C322.035 19.578 321.723 20.0937 321.48 20.5563C321.389 20.7914 321.313 20.9051 321.305 20.9658C321.206 21.2616 321.168 21.5651 321.19 21.8763C321.113 22.4833 321.294 22.9996 321.619 23.3492C321.945 23.6987 322.24 23.7978 322.543 23.8361C322.915 23.8215 323.165 23.7915 323.37 23.6324C323.833 23.3826 324.311 23.0114 324.683 22.5034C324.911 22.1623 325.147 21.7603 325.329 21.29L325.353 21.108Z" fill="white"/>
<path d="M330.997 22.2576C330.99 22.3183 330.914 22.432 330.898 22.5534L330.815 22.7278L330.723 22.963C330.624 23.2588 330.525 23.5546 330.441 23.729L330.183 24.313L329.825 25.1929C329.741 25.3673 329.619 25.8453 329.353 26.49C329.239 26.9072 329.147 27.1423 329.071 27.256C328.98 27.4911 328.843 27.5972 328.593 27.6273L328.351 27.5966L327.259 27.4585L327.017 27.4278L326.774 27.3971C326.592 27.3741 326.608 27.2527 326.631 27.0706C326.654 26.8885 326.738 26.714 326.829 26.4789L327.004 26.0693L327.187 25.5991C327.263 25.4853 327.286 25.3032 327.369 25.1288L327.453 24.9543L327.537 24.7799L327.62 24.6055C327.636 24.4841 327.704 24.431 327.712 24.3703L327.894 23.9001L328.26 22.9596C328.45 22.4286 328.542 22.1935 328.549 22.1328C328.641 21.8977 328.732 21.6625 328.831 21.3667L328.938 21.0101L329.105 20.6613L329.196 20.4262L329.494 19.5387L329.692 18.947C329.775 18.7726 329.874 18.4767 329.973 18.1809C330.072 17.885 330.171 17.5892 330.255 17.4148C330.339 17.2404 330.43 17.0053 330.582 16.7778C330.666 16.6034 330.795 16.558 330.916 16.5734L331.158 16.604L331.401 16.6347L331.704 16.6731L331.947 16.7038L332.25 16.7421C332.371 16.7575 332.432 16.7652 332.492 16.7728L332.674 16.7959L332.856 16.8189C333.038 16.8419 333.083 16.971 333.121 17.1607L333.098 17.3428L333.082 17.4642L333.075 17.5249L333.142 17.9652C333.187 18.0942 333.164 18.2764 333.21 18.4054C333.285 18.785 333.36 19.1646 333.367 19.5971C333.389 19.9083 333.426 20.0981 333.464 20.2879C333.6 20.6751 333.773 21.2521 333.908 22.1326L333.953 22.2616L333.999 22.3907C333.999 22.3907 334.044 22.5198 334.089 22.6488C334.158 22.5958 334.165 22.5351 334.226 22.5428L334.294 22.4898L334.302 22.429L334.309 22.3684L334.789 21.0106L334.964 20.601C335.056 20.3659 335.155 20.0701 335.254 19.7742L335.436 19.304L335.559 18.826L335.642 18.6517C335.658 18.5303 335.726 18.4772 335.734 18.4165L335.848 17.9992L335.924 17.8855L335.939 17.7642C336.023 17.5897 336.099 17.476 336.281 17.499C336.402 17.5144 336.584 17.5374 336.948 17.5834L337.13 17.6064L337.251 17.6218L337.372 17.6371L337.668 17.7362L337.971 17.7745C338.153 17.7975 338.198 17.9266 338.235 18.1164C338.228 18.1771 338.212 18.2985 338.189 18.4806L338.083 18.8371C337.968 19.2543 337.869 19.5502 337.854 19.6716L337.526 20.8019C337.503 20.984 337.419 21.1584 337.389 21.4012L337.19 21.9929L336.977 22.7059C336.886 22.9411 336.855 23.1839 336.764 23.4191C336.589 23.8286 336.49 24.1244 336.459 24.3672L336.436 24.5493L336.238 25.141L336.055 25.6113L335.872 26.0815L335.758 26.4988L335.583 26.9083L335.56 27.0904L335.476 27.2649L335.377 27.5607L335.293 27.7351L335.21 27.9096L335.042 28.2584C334.966 28.3721 334.89 28.4859 334.701 28.5235C334.322 28.5989 333.943 28.6743 333.579 28.6283L333.276 28.5899L332.677 28.4525L332.382 28.3534C332.261 28.338 332.215 28.209 332.17 28.0799L332.118 27.5183L331.998 26.5164L331.961 26.3266L331.984 26.1444L331.938 26.0154L331.901 25.8256L331.917 25.2109L331.895 24.8997L331.865 24.6493L331.647 23.4499C331.61 23.2602 331.572 23.0704 331.489 22.7516L331.406 22.4327L331.331 22.0531C331.339 21.9924 331.286 21.9241 331.233 21.8557C331.165 21.9087 331.157 21.9694 331.089 22.0224L330.997 22.2576Z" fill="white"/>
<path d="M348.137 30.4056C348.122 30.527 347.985 30.633 347.864 30.6177C347.803 30.61 347.743 30.6024 347.682 30.5947L347.5 30.5717L347.076 30.518L346.833 30.4873L346.591 30.4566C346.348 30.4259 346.227 30.4105 346.106 30.3952C345.863 30.3645 345.818 30.2354 345.849 29.9926L346.071 28.7256L346.269 27.6406C346.292 27.4585 346.308 27.3372 346.255 27.2688C346.202 27.2004 346.149 27.1321 346.035 27.056C345.687 26.8886 345.392 26.7895 345.149 26.7588C344.846 26.7204 344.664 26.6974 344.551 26.6214C344.429 26.6061 344.3 26.6514 344.217 26.8259L344.049 27.1747L343.95 27.4705C343.874 27.5843 343.859 27.7056 343.783 27.8194L343.699 27.9938L343.616 28.1682L343.433 28.6385L343.19 29.1011C343.106 29.2755 343.022 29.45 342.946 29.5637C342.863 29.7381 342.726 29.8442 342.544 29.8212L341.324 29.7284C341.203 29.713 341.021 29.69 340.839 29.667L340.596 29.6363L340.354 29.6056C340.293 29.598 340.233 29.5903 340.233 29.5903C340.111 29.5749 340.066 29.4459 340.15 29.2714L340.309 28.9833L340.469 28.6951L341.374 26.8978L341.45 26.7841L341.534 26.6096C341.61 26.4959 341.686 26.3822 341.701 26.2608L342.028 25.6238L342.91 24.0085C342.918 23.9478 342.994 23.8341 343.07 23.7204L343.169 23.4245C343.579 22.6131 343.982 21.8623 344.385 21.1116L345.26 19.5571L345.336 19.4433L345.419 19.2689C345.571 19.0415 345.769 18.943 345.951 18.966C346.686 18.9974 347.171 19.0588 347.406 19.1502C347.466 19.1579 347.527 19.1655 347.587 19.1732L347.709 19.1885L347.83 19.2039C348.012 19.2269 348.133 19.2423 348.247 19.3184L349.072 19.6078L350.019 19.9127C350.141 19.9281 350.254 20.0041 350.307 20.0725L350.299 20.1331L350.292 20.1939C350.284 20.2546 350.276 20.3152 350.261 20.4366L349.994 21.5746L349.879 21.9919C349.856 22.174 349.773 22.3484 349.765 22.4091L349.536 23.2436C349.498 23.5471 349.406 23.7822 349.376 24.025L349.231 24.6851L349.085 25.3451L348.917 26.1873C348.887 26.4301 348.787 26.7258 348.749 27.0293L348.627 27.5073L348.505 27.9853L348.367 28.5846L348.23 29.184C348.139 29.4191 348.123 29.5405 348.116 29.6012L348.137 30.4056ZM347.048 24.4089L347.185 23.8095L347.323 23.2102L347.377 22.7853L347.43 22.3604C347.446 22.239 347.401 22.1099 347.279 22.0945L347.097 22.0715L346.916 22.0485C346.794 22.0332 346.726 22.0862 346.65 22.2C346.582 22.253 346.574 22.3136 346.559 22.435L346.467 22.6702C346.376 22.9053 346.224 23.1328 346.072 23.3603L345.737 24.058C345.661 24.1717 345.585 24.2854 345.509 24.3991C345.426 24.5736 345.471 24.7026 345.6 24.6573C345.66 24.665 345.66 24.665 345.66 24.665L346.691 24.7954C346.881 24.7577 347.017 24.6517 347.048 24.4089Z" fill="white"/>
<path d="M349.754 28.8241L349.861 28.4676L349.975 28.0503L350.082 27.6938L350.372 26.867L350.463 26.6318L350.554 26.3967C350.562 26.336 350.63 26.283 350.646 26.1616C350.653 26.1009 350.661 26.0402 350.669 25.9795C350.684 25.8581 350.699 25.7367 350.775 25.6229L350.943 25.2741L351.316 24.2728L351.628 23.264L352.382 21.2008L352.481 20.905L352.58 20.6091C352.664 20.4347 352.74 20.321 352.929 20.2833L352.99 20.291L353.051 20.2987L353.111 20.3063C353.354 20.337 353.649 20.4361 354.066 20.5505C354.066 20.5505 354.127 20.5581 354.187 20.5658L354.248 20.5735L354.369 20.5888L354.551 20.6119L354.733 20.6349L354.794 20.6425C355.036 20.6732 355.134 20.8707 355.035 21.1665C354.822 21.8796 354.472 22.6987 354.061 23.5102C353.818 23.9728 353.627 24.5037 353.49 25.103L353.467 25.2852L353.383 25.4596L353.177 26.112L352.964 26.825C352.941 27.0071 352.857 27.1816 352.766 27.4167L352.552 28.1297C352.172 29.1916 351.974 29.7833 351.958 29.9047C351.776 30.375 351.737 30.6785 351.661 30.7922C351.577 30.9666 351.494 31.1411 351.426 31.1941C351.357 31.2472 351.236 31.2318 351.054 31.2088L350.213 31.0407L349.789 30.987L349.364 30.9333C349.304 30.9256 349.304 30.9256 349.243 30.9179C349.122 30.9026 349.076 30.7735 349.1 30.5914L349.237 29.9921L349.351 29.5748L349.466 29.1576L349.754 28.8241Z" fill="white"/>
<path d="M355.786 29.8303C355.771 29.9517 355.702 30.0048 355.687 30.1262C355.672 30.2476 355.664 30.3083 355.588 30.422L355.382 31.0743L355.207 31.4839C355.192 31.6053 355.116 31.719 355.108 31.7797C355.024 31.9541 354.948 32.0679 354.767 32.0448L354.342 31.9911L354.1 31.9605L353.918 31.9374L353.736 31.9144L353.493 31.8837L353.312 31.8607C353.19 31.8454 353.069 31.83 353.008 31.8223C352.827 31.7993 352.721 31.6626 352.812 31.4275C352.835 31.2454 352.919 31.071 353.018 30.7751L353.117 30.4793L353.224 30.1228L353.33 29.7662L353.437 29.4097C353.635 28.818 353.818 28.3477 353.993 27.9382L354.191 27.3465C354.191 27.3465 354.214 27.1644 354.305 26.9293C354.625 25.8597 354.922 24.9722 355.128 24.3198L355.212 24.1454L355.882 22.2567C355.89 22.196 355.989 21.9001 356.24 21.3768L356.331 21.1417C356.407 21.028 356.483 20.9142 356.604 20.9296C356.862 20.8389 357.113 20.8089 357.355 20.8396L358.696 20.9477L358.878 20.9707L359.06 20.9937L359.363 21.0321C359.485 21.0474 359.606 21.0628 359.606 21.0628C360.144 21.1925 360.568 21.2462 361.038 21.429C361.447 21.6041 361.742 21.7032 361.916 21.7869C362.03 21.8629 362.144 21.939 362.249 22.0757C362.507 22.4783 362.627 22.9869 362.618 23.5409C362.595 24.2162 362.518 24.8233 362.274 25.2859C361.901 26.2871 361.233 27.1892 360.345 27.8786C360.072 28.0907 359.745 28.2345 359.427 28.3175C359.298 28.3629 359.23 28.4159 359.161 28.469C359.154 28.5297 359.146 28.5904 359.191 28.7194L359.478 29.3725C359.523 29.5016 359.629 29.6383 359.675 29.7674C359.728 29.8357 359.773 29.9648 359.879 30.1016C359.924 30.2306 360.03 30.3673 360.181 30.6332C360.332 30.899 360.377 31.0281 360.423 31.1572C360.415 31.2179 360.513 31.4153 360.657 31.7418L360.739 32.0607L360.83 32.3189L360.822 32.3795C360.868 32.5086 360.792 32.6223 360.663 32.6677L360.223 32.7354C360.102 32.72 359.791 32.7424 359.298 32.7417L358.373 32.748L358.313 32.7403L358.252 32.7327C358.131 32.7173 358.078 32.6489 358.033 32.5198C357.987 32.3908 357.995 32.3301 357.95 32.201C357.905 32.0719 357.867 31.8822 357.822 31.7531C357.739 31.4343 357.648 31.1761 357.543 31.0394C357.414 30.5915 357.271 30.2649 357.135 29.8777L356.984 29.6118L356.833 29.3461L356.584 28.8828L356.531 28.8144L356.478 28.746C356.417 28.7384 356.425 28.6777 356.356 28.7307C356.296 28.723 356.22 28.8368 356.204 28.9582L355.786 29.8303ZM357.812 24.0427L356.913 26.7659C356.829 26.9403 356.875 27.0694 357.064 27.0317L357.125 27.0394C357.617 27.0401 358.133 26.8587 358.604 26.5482C358.809 26.3891 359.014 26.23 359.158 26.0632C359.522 25.616 359.644 25.138 359.645 24.6448C359.631 24.2729 359.48 24.0071 359.184 23.908C359.124 23.9003 359.071 23.832 358.949 23.8166L358.828 23.8013L358.646 23.7783C358.464 23.7553 358.275 23.7929 358.093 23.7699C357.972 23.7546 357.835 23.8606 357.812 24.0427Z" fill="white"/>
<defs>
<linearGradient id="paint0_linear" x1="25.6883" y1="66.4414" x2="203.829" y2="97.8587" gradientUnits="userSpaceOnUse">
<stop stop-color="#FF6E5D"/>
<stop offset="1" stop-color="#FF3C6A"/>
</linearGradient>
<linearGradient id="paint1_linear" x1="163.032" y1="52.3291" x2="317.404" y2="107.894" gradientUnits="userSpaceOnUse">
<stop stop-color="#FF6E5D"/>
<stop offset="1" stop-color="#FF3C6A"/>
</linearGradient>
<linearGradient id="paint2_linear" x1="265.29" y1="44.896" x2="425.872" y2="128.023" gradientUnits="userSpaceOnUse">
<stop stop-color="#FF6E5D"/>
<stop offset="1" stop-color="#FF3C6A"/>
</linearGradient>
</defs>
</svg>
