<svg width="20" height="20" viewBox="0 0 17 20" fill="none" xmlns="http://www.w3.org/2000/svg">
<path d="M5.71182 12.2284L5.58982 11.4884L5.58981 11.4884L5.71182 12.2284ZM11.2882 12.2284L11.4102 11.4884L11.4102 11.4884L11.2882 12.2284ZM11.496 12.2627L11.374 13.0027L11.374 13.0027L11.496 12.2627ZM5.50404 12.2627L5.62604 13.0027L5.62605 13.0027L5.50404 12.2627ZM5.62605 13.0027L5.83383 12.9684L5.58981 11.4884L5.38203 11.5226L5.62605 13.0027ZM11.1662 12.9684L11.374 13.0027L11.618 11.5226L11.4102 11.4884L11.1662 12.9684ZM13.6719 18.25H3.32813V19.75H13.6719V18.25ZM5.83382 12.9684C7.60013 12.6772 9.39987 12.6772 11.1662 12.9684L11.4102 11.4884C9.48229 11.1705 7.5177 11.1705 5.58982 11.4884L5.83382 12.9684ZM0.75 17.1115C0.75 18.5455 1.88147 19.75 3.32813 19.75V18.25C2.75549 18.25 2.25 17.7634 2.25 17.1115H0.75ZM14.75 17.1115C14.75 17.7634 14.2445 18.25 13.6719 18.25V19.75C15.1185 19.75 16.25 18.5455 16.25 17.1115H14.75ZM16.25 17.1115C16.25 14.349 14.3042 11.9655 11.618 11.5226L11.374 13.0027C13.3012 13.3204 14.75 15.0477 14.75 17.1115H16.25ZM2.25 17.1115C2.25 15.0477 3.69882 13.3204 5.62604 13.0027L5.38204 11.5226C2.69583 11.9655 0.75 14.349 0.75 17.1115H2.25ZM11.8334 4.9375C11.8334 6.67243 10.3669 8.125 8.50002 8.125V9.625C11.1435 9.625 13.3334 7.55181 13.3334 4.9375H11.8334ZM8.50002 8.125C6.63313 8.125 5.16669 6.67243 5.16669 4.9375H3.66669C3.66669 7.55181 5.85659 9.625 8.50002 9.625V8.125ZM5.16669 4.9375C5.16669 3.20257 6.63313 1.75 8.50002 1.75V0.25C5.85659 0.25 3.66669 2.32319 3.66669 4.9375H5.16669ZM8.50002 1.75C10.3669 1.75 11.8334 3.20257 11.8334 4.9375H13.3334C13.3334 2.32319 11.1435 0.25 8.50002 0.25V1.75Z" fill="#595959"/>
</svg>
