<svg width="16" height="16" viewBox="0 0 16 16" fill="none" xmlns="http://www.w3.org/2000/svg">
<path d="M9.90469 3.28391C9.1934 1.57203 6.8066 1.57203 6.09531 3.28391L5.72246 4.18126C5.574 4.53856 5.25049 4.78152 4.88073 4.82339L3.84026 4.9412C2.08139 5.14035 1.37953 7.32992 2.6442 8.55259L3.52761 9.40667C3.78861 9.659 3.90596 10.0333 3.83399 10.3973L3.62069 11.4761C3.26656 13.2673 5.19667 14.6655 6.75191 13.667L7.44969 13.2191C7.78644 13.0029 8.21356 13.0029 8.55031 13.2191L9.24809 13.667C10.8033 14.6655 12.7334 13.2673 12.3793 11.4761L12.166 10.3973C12.094 10.0333 12.2114 9.659 12.4724 9.40667L13.3558 8.55259C14.6205 7.32992 13.9186 5.14035 12.1597 4.9412L11.1193 4.82339C10.7495 4.78152 10.426 4.53856 10.2775 4.18126L9.90469 3.28391Z" fill="#F3AE2B"/>
</svg>
