<svg width="20" height="20" viewBox="0 0 20 18" fill="none" xmlns="http://www.w3.org/2000/svg">
<path fill-rule="evenodd" clip-rule="evenodd" d="M8.45869 1.71321C9.47604 1.50597 10.524 1.50597 11.5413 1.71321C14.947 2.40696 17.5666 5.08688 18.2726 8.45231C17.8627 8.2485 17.4016 8.13405 16.9141 8.13405C16.5532 8.13405 16.1939 8.18454 15.8466 8.28408L15.578 8.36106C14.0326 8.80398 12.8649 10.0899 12.5584 11.6863C12.3833 12.5982 12.3833 13.5358 12.5584 14.4477C12.8649 16.0442 14.0326 17.3301 15.578 17.773L15.8466 17.85C16.1939 17.9495 16.5532 18 16.9141 18C18.6184 18 20 16.6011 20 14.8754L20 9.92475L19.9757 9.56597C19.6624 4.94133 16.3328 1.10026 11.8447 0.186025C10.6271 -0.0620084 9.37289 -0.0620083 8.15527 0.186025C3.66717 1.10026 0.33756 4.94133 0.0243024 9.56597L0 9.92475L5.0129e-06 14.8754C-4.70724e-06 16.6011 1.38158 18 3.08586 18C3.44684 18 3.80608 17.9495 4.15342 17.85L4.42199 17.773C5.96742 17.3301 7.13514 16.0442 7.44163 14.4477C7.6167 13.5358 7.6167 12.5982 7.44163 11.6863C7.13514 10.0899 5.96743 8.80398 4.42199 8.36105L4.15342 8.28408C3.80609 8.18454 3.44684 8.13405 3.08586 8.13405C2.5984 8.13405 2.13733 8.24849 1.72744 8.4523C2.4334 5.08688 5.05297 2.40696 8.45869 1.71321Z" fill="#595959"/>
</svg>
